<svg xmlns="http://www.w3.org/2000/svg" xmlns:xlink="http://www.w3.org/1999/xlink" width="1122" zoomAndPan="magnify" viewBox="0 0 841.92 595.499987" height="793" preserveAspectRatio="xMidYMid meet" version="1.0"><defs><g/></defs><g fill="#e41818" fill-opacity="1"><g transform="translate(300.707799, 314.255916)"><g><path d="M 4.3125 0 L 4.3125 -44.125 L 14.1875 -44.125 L 14.1875 -8.015625 L 46.46875 -8.015625 L 46.46875 0 Z M 4.3125 0 "/></g></g></g><g fill="#e41818" fill-opacity="1"><g transform="translate(349.020825, 314.255916)"><g><path d="M 4.3125 0 L 4.3125 -44.125 L 14.1875 -44.125 L 14.1875 0 Z M 4.3125 0 "/></g></g></g><g fill="#e41818" fill-opacity="1"><g transform="translate(367.531563, 314.255916)"><g><path d="M 4.3125 0 L 4.3125 -44 L 41.46875 -44.125 C 46.363281 -44.125 49.992188 -43.101562 52.359375 -41.0625 C 54.722656 -39.03125 55.90625 -35.976562 55.90625 -31.90625 C 55.90625 -27.832031 54.546875 -24.847656 51.828125 -22.953125 C 53.640625 -21.960938 54.976562 -20.65625 55.84375 -19.03125 C 56.707031 -17.40625 57.140625 -15.316406 57.140625 -12.765625 C 57.140625 -8.617188 55.957031 -5.460938 53.59375 -3.296875 C 51.226562 -1.140625 47.597656 -0.0625 42.703125 -0.0625 Z M 40.296875 -36.21875 L 14.1875 -36.21875 L 14.1875 -26.34375 L 40.296875 -26.34375 C 44.035156 -26.34375 45.90625 -28.03125 45.90625 -31.40625 C 45.90625 -34.613281 44.035156 -36.21875 40.296875 -36.21875 Z M 41.53125 -18.453125 L 14.1875 -18.453125 L 14.1875 -7.953125 L 41.53125 -7.953125 C 45.269531 -7.953125 47.140625 -9.722656 47.140625 -13.265625 C 47.140625 -16.722656 45.269531 -18.453125 41.53125 -18.453125 Z M 41.53125 -18.453125 "/></g></g></g><g fill="#e41818" fill-opacity="1"><g transform="translate(427.136141, 314.255916)"><g><path d="M 4.3125 0 L 4.3125 -44.125 L 41.28125 -44.125 C 45.84375 -44.125 49.390625 -42.96875 51.921875 -40.65625 C 54.453125 -38.351562 55.71875 -34.859375 55.71875 -30.171875 C 55.71875 -26.179688 54.789062 -23.054688 52.9375 -20.796875 C 51.09375 -18.535156 48.460938 -17.113281 45.046875 -16.53125 L 55.21875 0 L 44 0 L 34.546875 -16.234375 L 14.1875 -16.234375 L 14.1875 0 Z M 40.109375 -36.09375 L 14.1875 -36.09375 L 14.1875 -24.3125 L 40.109375 -24.25 C 41.921875 -24.25 43.304688 -24.703125 44.265625 -25.609375 C 45.234375 -26.515625 45.71875 -28.035156 45.71875 -30.171875 C 45.71875 -32.347656 45.234375 -33.878906 44.265625 -34.765625 C 43.304688 -35.648438 41.921875 -36.09375 40.109375 -36.09375 Z M 40.109375 -36.09375 "/></g></g></g><g fill="#e41818" fill-opacity="1"><g transform="translate(485.938579, 314.255916)"><g><path d="M 4.3125 0 L 4.3125 -44.125 L 52.6875 -44.125 L 52.6875 -36.09375 L 14.1875 -36.09375 L 14.1875 -26.34375 L 49.109375 -26.34375 L 49.109375 -18.328125 L 14.1875 -18.328125 L 14.1875 -8.015625 L 52.6875 -8.015625 L 52.6875 0 Z M 4.3125 0 "/></g></g></g><g fill="#ede9e7" fill-opacity="1"><g transform="translate(366.266665, 353.174087)"><g><path d="M 1.859375 0 L 1.859375 -17.359375 L 15.140625 -17.359375 C 17.097656 -17.359375 18.535156 -16.867188 19.453125 -15.890625 C 20.378906 -14.921875 20.84375 -13.632812 20.84375 -12.03125 L 20.84375 -8.4375 L 15.875 -8.4375 L 15.875 -11.4375 C 15.875 -12.78125 15.203125 -13.453125 13.859375 -13.453125 L 6.8125 -13.453125 L 6.8125 0 Z M 1.859375 0 "/></g></g></g><g fill="#ede9e7" fill-opacity="1"><g transform="translate(387.945727, 353.174087)"><g><path d="M 6.46875 0 C 4.65625 0 3.265625 -0.457031 2.296875 -1.375 C 1.328125 -2.300781 0.84375 -3.617188 0.84375 -5.328125 C 0.84375 -7.015625 1.328125 -8.316406 2.296875 -9.234375 C 3.265625 -10.160156 4.65625 -10.625 6.46875 -10.625 L 19.421875 -10.625 L 19.421875 -11.4375 C 19.421875 -12.800781 18.75 -13.484375 17.40625 -13.484375 L 3.109375 -13.484375 L 3.109375 -17.359375 L 18.6875 -17.359375 C 20.726562 -17.359375 22.175781 -16.890625 23.03125 -15.953125 C 23.882812 -15.023438 24.3125 -13.71875 24.3125 -12.03125 L 24.3125 0 Z M 7.34375 -3.875 L 19.421875 -3.875 L 19.421875 -6.75 L 7.34375 -6.75 C 6.914062 -6.75 6.582031 -6.617188 6.34375 -6.359375 C 6.113281 -6.097656 6 -5.753906 6 -5.328125 C 6 -4.898438 6.113281 -4.550781 6.34375 -4.28125 C 6.582031 -4.007812 6.914062 -3.875 7.34375 -3.875 Z M 7.34375 -3.875 "/></g></g></g><g fill="#ede9e7" fill-opacity="1"><g transform="translate(414.108951, 353.174087)"><g><path d="M 23.234375 0 L 23.234375 -24.109375 L 18.34375 -24.109375 L 18.34375 0 Z M 22.390625 0 L 22.390625 -3.875 L 10.765625 -3.875 C 9.304688 -3.875 8.1875 -4.269531 7.40625 -5.0625 C 6.632812 -5.863281 6.25 -7.066406 6.25 -8.671875 C 6.25 -10.285156 6.632812 -11.488281 7.40625 -12.28125 C 8.1875 -13.082031 9.304688 -13.484375 10.765625 -13.484375 L 22.0625 -13.484375 L 22.0625 -17.359375 L 10.765625 -17.359375 C 7.753906 -17.359375 5.40625 -16.617188 3.71875 -15.140625 C 2.03125 -13.660156 1.1875 -11.503906 1.1875 -8.671875 C 1.1875 -5.859375 2.03125 -3.707031 3.71875 -2.21875 C 5.40625 -0.738281 7.753906 0 10.765625 0 Z M 22.390625 0 "/></g></g></g><g fill="#ede9e7" fill-opacity="1"><g transform="translate(439.193273, 353.174087)"><g><path d="M 1.859375 0 L 1.859375 -17.359375 L 6.75 -17.359375 L 6.75 0 Z M 1.8125 -20.234375 L 1.8125 -24.046875 L 6.78125 -24.046875 L 6.78125 -20.234375 Z M 1.8125 -20.234375 "/></g></g></g><g fill="#ede9e7" fill-opacity="1"><g transform="translate(447.790721, 353.174087)"><g><path d="M 10.75 0.171875 C 7.738281 0.171875 5.390625 -0.570312 3.703125 -2.0625 C 2.023438 -3.5625 1.1875 -5.765625 1.1875 -8.671875 C 1.1875 -11.585938 2.023438 -13.789062 3.703125 -15.28125 C 5.390625 -16.78125 7.738281 -17.53125 10.75 -17.53125 L 17 -17.53125 C 20.007812 -17.53125 22.359375 -16.78125 24.046875 -15.28125 C 25.734375 -13.789062 26.578125 -11.585938 26.578125 -8.671875 C 26.578125 -5.765625 25.734375 -3.5625 24.046875 -2.0625 C 22.359375 -0.570312 20.007812 0.171875 17 0.171875 Z M 10.75 -3.703125 L 17 -3.703125 C 18.457031 -3.703125 19.570312 -4.109375 20.34375 -4.921875 C 21.125 -5.734375 21.515625 -6.984375 21.515625 -8.671875 C 21.515625 -10.378906 21.125 -11.632812 20.34375 -12.4375 C 19.570312 -13.25 18.457031 -13.65625 17 -13.65625 L 10.75 -13.65625 C 9.289062 -13.65625 8.171875 -13.25 7.390625 -12.4375 C 6.617188 -11.632812 6.234375 -10.378906 6.234375 -8.671875 C 6.234375 -6.984375 6.617188 -5.734375 7.390625 -4.921875 C 8.171875 -4.109375 9.289062 -3.703125 10.75 -3.703125 Z M 10.75 -3.703125 "/></g></g></g></svg>