<svg xmlns="http://www.w3.org/2000/svg" xmlns:xlink="http://www.w3.org/1999/xlink" width="500" zoomAndPan="magnify" viewBox="0 0 375 374.999991" height="500" preserveAspectRatio="xMidYMid meet" version="1.0"><defs><clipPath id="5eb3a9aebc"><path d="M 51.035156 46.632812 L 344.40625 46.632812 L 344.40625 335.09375 L 51.035156 335.09375 Z M 51.035156 46.632812 " clip-rule="nonzero"/></clipPath></defs><g clip-path="url(#5eb3a9aebc)"><path fill="#ffffff" d="M 121.871094 335.035156 C 119.144531 335.054688 116.453125 334.746094 113.796875 334.109375 C 111.144531 333.476562 108.601562 332.53125 106.175781 331.28125 C 104.445312 330.410156 102.90625 329.574219 101.398438 328.777344 C 94.0625 324.828125 89.210938 322.214844 78.640625 324.125 L 78.296875 324.191406 L 78.246094 323.84375 C 76.367188 312.058594 71.542969 307.355469 63.550781 299.5625 L 62.332031 298.375 C 54.6875 290.867188 53.035156 283.921875 52.640625 273.726562 C 52.511719 270.449219 52.371094 267.117188 52.21875 263.730469 C 51.335938 243.390625 50.332031 220.347656 52.851562 200.390625 C 55.300781 180.976562 68.007812 165.492188 80.292969 150.511719 C 90.527344 138.058594 101.078125 125.171875 105.699219 110.105469 C 109.273438 98.421875 104.949219 89.386719 91.667969 80.796875 C 87.832031 78.3125 83.902344 76.179688 80.066406 74.121094 C 68.371094 67.769531 57.292969 61.769531 52.640625 47.082031 L 52.488281 46.605469 L 52.988281 46.605469 C 62.363281 47.238281 71.9375 47.804688 81.191406 48.359375 C 111.425781 50.144531 142.6875 51.996094 172.980469 56.546875 C 184.582031 58.300781 196.734375 60.5 208.46875 62.628906 C 239.628906 68.3125 271.769531 74.148438 302.355469 73.390625 L 302.703125 73.390625 L 302.703125 73.738281 C 302.625 77.304688 302.316406 80.847656 301.777344 84.371094 C 301.148438 89.148438 300.5 94.109375 301.058594 98.757812 C 301.90625 105.773438 306.042969 111.585938 310.046875 117.214844 C 311.503906 119.265625 313.011719 121.378906 314.320312 123.507812 C 320.011719 132.761719 322.617188 142.097656 325.375 151.972656 C 325.9375 154.019531 326.507812 156.066406 327.117188 158.113281 C 330.308594 169.035156 336.238281 175.75 343.746094 184.210938 L 344.226562 184.75 L 343.882812 184.96875 C 327.027344 195.464844 319.164062 214.414062 311.570312 232.738281 C 302.617188 254.339844 293.355469 276.667969 269.257812 284.46875 C 261.976562 286.820312 254.527344 289.136719 247.316406 291.378906 C 232.871094 295.871094 217.941406 300.511719 203.539062 305.710938 C 194.359375 309.027344 185.429688 313.21875 176.796875 317.25 C 163.636719 323.394531 150.035156 329.769531 135.34375 333.1875 C 130.925781 334.320312 126.433594 334.9375 121.871094 335.035156 Z M 85.207031 322.800781 C 91.785156 322.800781 96.027344 325.085938 101.777344 328.175781 C 103.257812 328.976562 104.792969 329.800781 106.511719 330.667969 C 116.160156 335.546875 124.636719 335.007812 135.171875 332.550781 C 149.789062 329.140625 163.359375 322.800781 176.488281 316.65625 C 185.132812 312.609375 194.082031 308.425781 203.289062 305.097656 C 217.699219 299.878906 232.632812 295.238281 247.09375 290.765625 C 254.300781 288.527344 261.746094 286.207031 269.027344 283.855469 C 292.84375 276.15625 301.628906 254.957031 310.929688 232.519531 C 318.515625 214.210938 326.363281 195.285156 343.171875 184.632812 C 335.632812 176.136719 329.679688 169.410156 326.453125 158.339844 C 325.847656 156.25 325.273438 154.203125 324.707031 152.199219 C 321.976562 142.363281 319.378906 133.089844 313.734375 123.902344 C 312.429688 121.796875 310.9375 119.6875 309.480469 117.652344 C 305.429688 111.957031 301.246094 106.050781 300.378906 98.878906 C 299.8125 94.144531 300.460938 89.15625 301.09375 84.324219 C 301.605469 80.941406 301.910156 77.542969 302.015625 74.128906 C 271.460938 74.808594 239.375 69.023438 208.351562 63.394531 C 196.628906 61.269531 184.464844 59.074219 172.863281 57.320312 C 142.589844 52.761719 111.347656 50.910156 81.132812 49.128906 C 72.042969 48.589844 62.644531 48.039062 53.425781 47.417969 C 58.097656 61.433594 68.949219 67.304688 80.421875 73.519531 C 84.238281 75.566406 88.179688 77.71875 92.023438 80.222656 C 105.597656 89.003906 110.011719 98.285156 106.355469 110.304688 C 101.695312 125.507812 91.082031 138.441406 80.824219 150.941406 C 68.59375 165.847656 55.949219 181.257812 53.527344 200.480469 C 51.023438 220.375 52.019531 243.390625 52.898438 263.699219 C 53.046875 267.085938 53.191406 270.417969 53.324219 273.699219 C 53.710938 283.71875 55.371094 290.542969 62.875 297.890625 L 64.097656 299.078125 C 72.109375 306.894531 76.976562 311.636719 78.933594 323.394531 C 81.007812 323.015625 83.097656 322.816406 85.207031 322.800781 Z M 85.207031 322.800781 " fill-opacity="1" fill-rule="nonzero"/></g><path fill="#ffffff" d="M 291.792969 80.261719 C 287.964844 80.261719 284.082031 79.949219 280.273438 79.636719 C 276.746094 79.355469 273.101562 79.054688 269.640625 79.035156 C 266.554688 79.035156 263.5 79.035156 260.394531 79.035156 C 252.941406 79.035156 245.230469 79.035156 237.640625 78.667969 C 217.503906 77.550781 197.644531 74.59375 178.058594 69.792969 C 137.359375 59.917969 93.625 57.734375 55.832031 56.460938 L 55.832031 55.777344 C 93.679688 57.054688 137.460938 59.238281 178.207031 69.113281 C 197.753906 73.90625 217.570312 76.863281 237.660156 77.984375 C 245.230469 78.378906 252.929688 78.367188 260.378906 78.351562 C 263.464844 78.351562 266.523438 78.351562 269.632812 78.351562 C 273.113281 78.351562 276.773438 78.671875 280.3125 78.960938 C 287.746094 79.558594 295.429688 80.179688 302.472656 78.433594 L 302.636719 79.117188 C 299.070312 79.941406 295.453125 80.324219 291.792969 80.261719 Z M 291.792969 80.261719 " fill-opacity="1" fill-rule="nonzero"/><path fill="#ffffff" d="M 229.589844 93.105469 C 215.824219 93.105469 201.671875 90.300781 185.183594 84.40625 C 151.210938 72.277344 111.328125 65.625 63.203125 64.089844 L 63.203125 63.40625 C 111.382812 64.949219 151.355469 71.59375 185.394531 83.777344 C 206.636719 91.367188 223.929688 93.789062 241.585938 91.742188 C 246.910156 91.113281 252.230469 89.953125 257.382812 88.835938 C 261.554688 87.925781 265.859375 86.984375 270.160156 86.328125 C 274.429688 85.75 278.722656 85.402344 283.03125 85.292969 C 289.621094 85 295.847656 84.726562 302.242188 82.78125 L 302.4375 83.464844 C 295.960938 85.441406 289.40625 85.730469 283.0625 86.007812 C 278.78125 86.089844 274.511719 86.410156 270.261719 86.964844 C 265.988281 87.648438 261.691406 88.554688 257.527344 89.457031 C 252.359375 90.582031 247.019531 91.75 241.667969 92.382812 C 237.65625 92.863281 233.628906 93.105469 229.589844 93.105469 Z M 229.589844 93.105469 " fill-opacity="1" fill-rule="nonzero"/><path fill="#ffffff" d="M 228.351562 110.644531 C 216.996094 110.644531 205.832031 106.6875 193.636719 100.804688 L 189.347656 98.757812 C 171.601562 90.1875 156.328125 82.78125 136.632812 81.203125 C 126.445312 80.386719 116.386719 78.207031 106.65625 76.105469 C 95.972656 73.792969 84.925781 71.40625 73.6875 70.8125 L 73.726562 70.128906 C 85.019531 70.730469 96.089844 73.125 106.796875 75.4375 C 116.507812 77.539062 126.546875 79.710938 136.6875 80.523438 C 156.511719 82.113281 171.867188 89.542969 189.636719 98.144531 L 193.933594 100.191406 C 212.273438 109.015625 228.148438 113.476562 245.972656 106.589844 C 249.976562 104.917969 253.824219 102.941406 257.519531 100.667969 C 261.617188 98.308594 265.804688 95.890625 270.335938 94.265625 C 275.011719 92.628906 279.664062 91.890625 284.164062 91.1875 C 290.183594 90.238281 295.867188 89.347656 301.652344 86.460938 L 301.960938 87.066406 C 296.078125 90 290.074219 90.941406 284.265625 91.84375 C 279.800781 92.527344 275.183594 93.277344 270.5625 94.902344 C 266.09375 96.464844 261.910156 98.894531 257.867188 101.242188 C 254.140625 103.535156 250.257812 105.527344 246.21875 107.210938 C 243.375 108.335938 240.453125 109.1875 237.449219 109.765625 C 234.445312 110.34375 231.410156 110.636719 228.351562 110.644531 Z M 228.351562 110.644531 " fill-opacity="1" fill-rule="nonzero"/><path fill="#ffffff" d="M 232.714844 129.226562 C 222.792969 129.226562 212.773438 124.117188 202.625 118.191406 C 198.332031 115.6875 194.089844 112.949219 189.972656 110.3125 C 184.0625 106.507812 177.953125 102.570312 171.621094 99.269531 C 162.230469 94.363281 153.933594 93.058594 144.324219 91.542969 C 142.449219 91.25 140.523438 90.949219 138.539062 90.609375 C 130.425781 89.242188 122.644531 86.730469 115.125 84.308594 C 105.71875 81.28125 96.015625 78.167969 85.609375 77.238281 L 85.664062 76.558594 C 96.128906 77.480469 105.890625 80.652344 115.335938 83.660156 C 122.84375 86.070312 130.585938 88.566406 138.648438 89.941406 C 140.640625 90.273438 142.558594 90.582031 144.433594 90.875 C 154.105469 92.390625 162.457031 93.707031 171.941406 98.660156 C 178.304688 101.984375 184.429688 105.921875 190.371094 109.738281 C 194.464844 112.378906 198.714844 115.109375 203 117.605469 C 220.648438 127.902344 236.589844 135.179688 252.921875 119.796875 C 255.125 117.617188 257.191406 115.316406 259.125 112.898438 C 262.414062 108.953125 265.8125 104.878906 270.1875 102.175781 C 274.949219 99.25 279.890625 97.882812 284.667969 96.519531 C 290.074219 95.023438 295.660156 93.480469 300.945312 89.660156 L 301.339844 90.210938 C 295.957031 94.109375 290.3125 95.671875 284.851562 97.171875 C 280.074219 98.484375 275.195312 99.839844 270.519531 102.730469 C 266.242188 105.375 262.878906 109.410156 259.601562 113.304688 C 257.644531 115.75 255.542969 118.070312 253.308594 120.265625 C 246.511719 126.738281 239.628906 129.226562 232.714844 129.226562 Z M 232.714844 129.226562 " fill-opacity="1" fill-rule="nonzero"/><path fill="#ffffff" d="M 238.378906 147.625 C 229.507812 147.625 219.816406 141.871094 211.257812 135.976562 C 206.855469 132.953125 202.722656 129.929688 198.730469 127.015625 C 182.652344 115.273438 168.769531 105.136719 147.464844 101.398438 C 138.890625 99.890625 131.085938 96.410156 123.53125 93.042969 C 115.191406 89.324219 106.574219 85.488281 96.914062 84.289062 L 96.996094 83.605469 C 106.769531 84.816406 115.425781 88.675781 123.8125 92.410156 C 131.316406 95.761719 139.105469 99.234375 147.585938 100.714844 C 169.050781 104.480469 182.992188 114.664062 199.140625 126.457031 C 203.128906 129.371094 207.261719 132.386719 211.648438 135.410156 C 221.578125 142.234375 233.035156 148.894531 242.765625 146.402344 C 248.910156 144.828125 254.027344 139.84375 258.394531 131.171875 C 259.445312 129.125 260.386719 126.847656 261.300781 124.675781 C 263.484375 119.480469 265.746094 114.105469 269.769531 110.023438 C 270.238281 109.507812 270.730469 109.019531 271.246094 108.554688 C 271.765625 108.09375 272.304688 107.660156 272.871094 107.253906 C 273.4375 106.847656 274.019531 106.476562 274.625 106.132812 C 275.230469 105.789062 275.851562 105.480469 276.488281 105.203125 C 277.125 104.929688 277.777344 104.6875 278.441406 104.480469 C 279.105469 104.273438 279.777344 104.105469 280.457031 103.96875 C 281.140625 103.835938 281.828125 103.738281 282.519531 103.675781 C 283.210938 103.613281 283.90625 103.589844 284.601562 103.601562 L 284.667969 103.601562 C 286.242188 103.191406 287.769531 102.648438 289.246094 101.96875 C 290.726562 101.292969 292.132812 100.492188 293.472656 99.566406 C 294.8125 98.644531 296.058594 97.609375 297.214844 96.46875 C 298.375 95.324219 299.421875 94.089844 300.363281 92.765625 L 300.910156 93.167969 C 299.941406 94.527344 298.863281 95.796875 297.671875 96.96875 C 296.484375 98.140625 295.199219 99.203125 293.824219 100.148438 C 292.445312 101.09375 290.996094 101.914062 289.476562 102.605469 C 287.957031 103.300781 286.386719 103.855469 284.769531 104.269531 L 284.667969 104.269531 C 283.992188 104.253906 283.320312 104.273438 282.644531 104.332031 C 281.972656 104.386719 281.304688 104.480469 280.640625 104.605469 C 279.976562 104.734375 279.324219 104.898438 278.675781 105.097656 C 278.03125 105.296875 277.398438 105.53125 276.777344 105.796875 C 276.15625 106.0625 275.554688 106.363281 274.964844 106.695312 C 274.375 107.027344 273.808594 107.390625 273.257812 107.785156 C 272.710938 108.179688 272.183594 108.601562 271.679688 109.050781 C 271.175781 109.503906 270.699219 109.980469 270.25 110.480469 C 266.304688 114.480469 264.074219 119.789062 261.910156 124.929688 C 260.996094 127.105469 260.046875 129.363281 258.988281 131.464844 C 254.519531 140.335938 249.261719 145.429688 242.917969 147.054688 C 241.425781 147.433594 239.914062 147.621094 238.378906 147.625 Z M 238.378906 147.625 " fill-opacity="1" fill-rule="nonzero"/><path fill="#ffffff" d="M 244.28125 166.257812 C 235.957031 166.257812 226.4375 159.015625 220.019531 154.128906 L 218.375 152.875 C 212.917969 148.777344 207.886719 144.566406 203.019531 140.496094 C 188.15625 128.066406 174.113281 116.308594 152.863281 112.359375 C 144.386719 110.78125 137.132812 106.742188 130.125 102.804688 C 122.507812 98.566406 114.640625 94.207031 105.1875 92.941406 L 105.28125 92.261719 C 114.835938 93.542969 122.800781 97.957031 130.464844 102.230469 C 137.433594 106.105469 144.640625 110.125 152.984375 111.679688 C 174.421875 115.679688 188.527344 127.480469 203.484375 139.96875 C 208.34375 144.027344 213.367188 148.234375 218.8125 152.328125 L 220.464844 153.578125 C 227.160156 158.675781 237.285156 166.378906 245.652344 165.5 C 256.238281 164.386719 259.097656 152.320312 261.183594 143.511719 L 261.464844 142.242188 C 261.914062 140.371094 262.289062 138.433594 262.6875 136.378906 C 264.050781 129.378906 265.449219 122.136719 269.902344 116.882812 C 270.367188 116.339844 270.863281 115.824219 271.386719 115.332031 C 271.910156 114.84375 272.460938 114.382812 273.035156 113.957031 C 273.609375 113.527344 274.203125 113.132812 274.820312 112.765625 C 275.441406 112.402344 276.074219 112.074219 276.730469 111.78125 C 277.382812 111.488281 278.050781 111.230469 278.734375 111.007812 C 279.414062 110.789062 280.105469 110.605469 280.808594 110.460938 C 281.511719 110.316406 282.21875 110.210938 282.933594 110.140625 C 283.644531 110.074219 284.359375 110.046875 285.078125 110.058594 C 286.660156 109.316406 288.171875 108.460938 289.621094 107.484375 C 291.070312 106.507812 292.433594 105.429688 293.714844 104.242188 C 294.996094 103.054688 296.175781 101.777344 297.257812 100.40625 C 298.339844 99.035156 299.308594 97.589844 300.164062 96.066406 L 300.761719 96.410156 C 299.882812 97.96875 298.890625 99.449219 297.785156 100.855469 C 296.679688 102.261719 295.46875 103.570312 294.15625 104.789062 C 292.84375 106.003906 291.445312 107.113281 289.960938 108.109375 C 288.476562 109.105469 286.925781 109.984375 285.304688 110.738281 L 285.152344 110.738281 C 284.457031 110.726562 283.761719 110.753906 283.070312 110.820312 C 282.375 110.882812 281.6875 110.984375 281.003906 111.125 C 280.324219 111.265625 279.652344 111.441406 278.988281 111.65625 C 278.328125 111.867188 277.679688 112.117188 277.042969 112.402344 C 276.40625 112.6875 275.789062 113.007812 275.191406 113.359375 C 274.589844 113.714844 274.011719 114.097656 273.453125 114.515625 C 272.894531 114.933594 272.363281 115.378906 271.855469 115.855469 C 271.347656 116.328125 270.867188 116.832031 270.410156 117.359375 C 266.09375 122.472656 264.699219 129.644531 263.355469 136.535156 C 262.960938 138.582031 262.578125 140.546875 262.128906 142.433594 L 261.820312 143.730469 C 259.683594 152.738281 256.757812 165.074219 245.6875 166.25 C 245.21875 166.277344 244.75 166.277344 244.28125 166.257812 Z M 244.28125 166.257812 " fill-opacity="1" fill-rule="nonzero"/><path fill="#ffffff" d="M 247.183594 180.128906 C 239.21875 180.128906 230.804688 173.660156 224.839844 169.074219 L 222.628906 167.390625 C 216.042969 162.457031 209.898438 156.789062 203.957031 151.3125 C 199.023438 146.765625 193.925781 142.0625 188.601562 137.804688 C 176.167969 127.863281 168.066406 126.332031 153.375 123.5625 C 145.253906 122.035156 138.550781 118.054688 132.074219 114.214844 C 124.746094 109.867188 117.164062 105.34375 107.507812 104.394531 L 107.574219 103.710938 C 117.398438 104.707031 125.046875 109.238281 132.4375 113.628906 C 138.867188 117.441406 145.511719 121.386719 153.511719 122.894531 C 167.839844 125.589844 176.476562 127.21875 189.046875 137.273438 C 194.382812 141.546875 199.492188 146.253906 204.433594 150.8125 C 210.363281 156.273438 216.492188 161.929688 223.050781 166.84375 C 223.734375 167.367188 224.492188 167.933594 225.269531 168.535156 C 232.542969 174.125 243.53125 182.582031 252.566406 178.261719 C 260.210938 174.609375 261.335938 165.429688 262.324219 157.332031 C 262.476562 156.082031 262.625 154.875 262.796875 153.726562 C 263.109375 151.570312 263.300781 149.152344 263.476562 146.589844 C 264.160156 138.015625 264.90625 128.292969 270.847656 122.746094 L 270.902344 122.703125 C 273.332031 121.21875 275.875 119.964844 278.53125 118.945312 C 281.1875 117.925781 283.917969 117.15625 286.714844 116.636719 C 288.199219 115.570312 289.609375 114.414062 290.949219 113.171875 C 292.289062 111.925781 293.546875 110.605469 294.722656 109.203125 C 295.894531 107.804688 296.976562 106.335938 297.96875 104.800781 C 298.960938 103.265625 299.851562 101.671875 300.644531 100.027344 L 301.257812 100.324219 C 300.449219 102.003906 299.542969 103.625 298.53125 105.1875 C 297.519531 106.753906 296.417969 108.246094 295.21875 109.671875 C 294.023438 111.097656 292.742188 112.445312 291.375 113.710938 C 290.007812 114.976562 288.570312 116.152344 287.054688 117.238281 L 286.914062 117.296875 C 284.144531 117.804688 281.445312 118.554688 278.8125 119.558594 C 276.183594 120.5625 273.667969 121.796875 271.265625 123.261719 C 265.53125 128.640625 264.789062 138.203125 264.132812 146.644531 C 263.929688 149.214844 263.746094 151.644531 263.453125 153.828125 C 263.28125 154.960938 263.136719 156.167969 262.980469 157.410156 C 262.019531 165.273438 260.824219 175.058594 252.839844 178.882812 C 251.957031 179.300781 251.035156 179.617188 250.082031 179.824219 C 249.125 180.035156 248.160156 180.136719 247.183594 180.128906 Z M 247.183594 180.128906 " fill-opacity="1" fill-rule="nonzero"/><path fill="#ffffff" d="M 245.085938 190.488281 C 236.367188 190.488281 227.460938 183.929688 222.007812 179.917969 C 215.507812 175.140625 209.359375 169.320312 203.410156 163.691406 C 189.980469 150.992188 176.113281 137.851562 157.140625 135.546875 C 147.660156 134.394531 139.117188 130.917969 130.859375 127.5625 C 121.84375 123.898438 112.53125 120.109375 102.046875 119.375 L 102.097656 118.691406 C 112.679688 119.375 122.058594 123.207031 131.121094 126.878906 C 139.308594 130.214844 147.832031 133.703125 157.222656 134.816406 C 176.398438 137.144531 190.371094 150.363281 203.882812 163.144531 C 209.8125 168.753906 215.945312 174.554688 222.410156 179.3125 C 229.675781 184.660156 243.195312 194.617188 253.800781 186.933594 C 259.261719 182.96875 260.808594 172.875 261.820312 166.195312 C 261.964844 165.253906 262.101562 164.367188 262.238281 163.5625 C 262.558594 161.617188 262.796875 159.234375 263.050781 156.734375 C 264.074219 146.574219 265.34375 133.929688 273.367188 129.289062 L 273.496094 129.242188 C 276.324219 128.898438 279.074219 128.234375 281.75 127.25 C 284.425781 126.269531 286.949219 124.996094 289.328125 123.425781 C 292.039062 120.824219 294.476562 117.984375 296.640625 114.910156 C 298.800781 111.835938 300.648438 108.582031 302.179688 105.152344 L 302.808594 105.429688 C 301.253906 108.914062 299.375 112.210938 297.179688 115.328125 C 294.984375 118.445312 292.507812 121.324219 289.75 123.960938 C 287.335938 125.558594 284.765625 126.863281 282.042969 127.867188 C 279.324219 128.871094 276.523438 129.554688 273.648438 129.910156 C 265.984375 134.40625 264.734375 146.820312 263.730469 156.804688 C 263.476562 159.335938 263.234375 161.730469 262.90625 163.699219 C 262.773438 164.503906 262.640625 165.382812 262.496094 166.324219 C 261.472656 173.113281 259.917969 183.386719 254.203125 187.480469 C 253.550781 187.964844 252.859375 188.398438 252.136719 188.773438 C 251.414062 189.152344 250.664062 189.46875 249.890625 189.722656 C 249.113281 189.976562 248.324219 190.171875 247.519531 190.300781 C 246.714844 190.429688 245.902344 190.492188 245.085938 190.488281 Z M 245.085938 190.488281 " fill-opacity="1" fill-rule="nonzero"/><path fill="#ffffff" d="M 237.742188 202.015625 C 230 202.015625 222.566406 196.9375 216.300781 192.644531 L 216.234375 192.597656 C 208.792969 187.507812 201.996094 180.921875 195.425781 174.546875 C 182.199219 161.730469 168.53125 148.472656 149.15625 147.167969 C 139.902344 146.539062 131.003906 144.363281 122.40625 142.253906 C 112.277344 139.777344 101.816406 137.210938 90.800781 137.210938 L 90.71875 137.210938 L 90.71875 136.527344 L 90.800781 136.527344 C 101.898438 136.527344 112.402344 139.101562 122.5625 141.59375 C 131.140625 143.695312 140.011719 145.867188 149.175781 146.484375 C 168.804688 147.808594 182.570312 161.152344 195.882812 174.0625 C 202.433594 180.410156 209.203125 186.976562 216.59375 192.039062 L 216.671875 192.085938 C 224.777344 197.636719 234.871094 204.539062 244.875 199.683594 C 253.746094 195.355469 257.214844 181.878906 259.734375 172.027344 C 260.15625 170.386719 260.550781 168.835938 260.941406 167.4375 C 261.429688 165.695312 261.886719 163.828125 262.371094 161.847656 C 264.769531 152.0625 267.75 139.878906 277.558594 135.503906 L 277.695312 135.503906 C 278.40625 135.5 279.121094 135.457031 279.832031 135.378906 C 280.542969 135.300781 281.246094 135.183594 281.945312 135.03125 C 282.644531 134.878906 283.332031 134.691406 284.011719 134.46875 C 284.691406 134.246094 285.355469 133.988281 286.007812 133.695312 C 286.660156 133.398438 287.292969 133.074219 287.914062 132.714844 C 288.53125 132.355469 289.128906 131.964844 289.707031 131.546875 C 290.285156 131.125 290.839844 130.675781 291.371094 130.195312 C 291.902344 129.71875 292.40625 129.210938 292.886719 128.683594 C 295.277344 125.875 297.453125 122.910156 299.414062 119.789062 C 301.375 116.667969 303.101562 113.417969 304.589844 110.042969 L 305.214844 110.324219 C 303.710938 113.730469 301.96875 117.007812 299.984375 120.160156 C 298.003906 123.3125 295.804688 126.304688 293.390625 129.140625 C 292.898438 129.683594 292.378906 130.203125 291.832031 130.699219 C 291.289062 131.191406 290.71875 131.65625 290.125 132.085938 C 289.53125 132.519531 288.914062 132.925781 288.28125 133.292969 C 287.644531 133.664062 286.992188 134 286.324219 134.304688 C 285.652344 134.605469 284.96875 134.875 284.269531 135.105469 C 283.574219 135.339844 282.863281 135.535156 282.148438 135.691406 C 281.429688 135.851562 280.707031 135.972656 279.976562 136.058594 C 279.242188 136.140625 278.511719 136.1875 277.773438 136.195312 C 268.316406 140.460938 265.492188 151.933594 263.035156 162.054688 C 262.550781 164.039062 262.09375 165.910156 261.601562 167.664062 C 261.210938 169.027344 260.808594 170.601562 260.394531 172.242188 C 257.84375 182.210938 254.347656 195.875 245.167969 200.332031 C 244.011719 200.890625 242.808594 201.316406 241.554688 201.601562 C 240.300781 201.882812 239.027344 202.023438 237.742188 202.015625 Z M 237.742188 202.015625 " fill-opacity="1" fill-rule="nonzero"/><path fill="#ffffff" d="M 225.125 212.710938 C 219.585938 212.710938 213.566406 210.519531 206.882812 206.089844 C 198.695312 200.671875 191.5625 193.453125 184.65625 186.46875 C 170.789062 172.460938 157.679688 159.226562 136.953125 159.226562 L 136.695312 159.226562 C 127.933594 159.269531 119.25 158.542969 110.824219 157.773438 C 99.640625 156.789062 88.070312 155.773438 76.414062 156.667969 L 76.367188 155.984375 C 88.078125 155.085938 99.671875 156.101562 110.886719 157.085938 C 119.292969 157.820312 127.988281 158.585938 136.695312 158.539062 L 136.960938 158.539062 C 157.972656 158.539062 171.164062 171.871094 185.140625 185.984375 C 192.027344 192.9375 199.144531 200.132812 207.261719 205.511719 C 216.128906 211.378906 223.734375 213.257812 230.589844 211.242188 C 243.753906 207.386719 251.746094 189.28125 258.785156 173.304688 L 258.933594 172.972656 C 259.617188 171.367188 260.339844 169.703125 260.980469 168.085938 C 265.375 157.625 269.921875 146.808594 280.523438 142.03125 C 295.308594 135.375 299.8125 129.921875 307.617188 114.636719 L 308.226562 114.945312 C 300.335938 130.402344 295.777344 135.90625 280.804688 142.652344 C 270.445312 147.320312 265.957031 158.011719 261.609375 168.351562 C 260.925781 169.96875 260.242188 171.640625 259.519531 173.246094 L 259.375 173.578125 C 252.273438 189.691406 244.21875 207.953125 230.75 211.898438 C 228.914062 212.4375 227.039062 212.707031 225.125 212.710938 Z M 225.125 212.710938 " fill-opacity="1" fill-rule="nonzero"/><path fill="#ffffff" d="M 212.328125 225.585938 C 206.964844 225.585938 201.410156 223.738281 195.710938 220.066406 C 187.261719 214.605469 180.058594 206.683594 173.097656 199.019531 C 160.035156 184.648438 147.703125 171.039062 127.589844 171.722656 C 108.128906 172.335938 85.191406 173.359375 62.699219 176.390625 L 62.609375 175.707031 C 85.128906 172.679688 108.089844 171.648438 127.570312 171.035156 C 147.976562 170.351562 161.011719 184.722656 173.601562 198.578125 C 180.535156 206.214844 187.707031 214.109375 196.082031 219.511719 C 203.585938 224.351562 210.828125 225.957031 217.660156 224.289062 C 233.191406 220.476562 244.453125 200.617188 253.496094 184.660156 C 254.859375 182.273438 256.128906 180.019531 257.382812 177.878906 C 258.15625 176.554688 258.933594 175.195312 259.71875 173.824219 C 265.675781 163.398438 272.382812 151.632812 283.984375 146.839844 C 285.816406 146.09375 287.679688 145.445312 289.574219 144.890625 C 293.335938 143.734375 296.050781 142.902344 299.8125 138.699219 C 303.941406 134.078125 306.773438 128.265625 309.507812 122.648438 C 310.023438 121.597656 310.539062 120.554688 311.050781 119.523438 L 311.660156 119.824219 C 311.148438 120.851562 310.636719 121.894531 310.121094 122.949219 C 307.394531 128.605469 304.511719 134.460938 300.316406 139.148438 C 296.425781 143.496094 293.640625 144.355469 289.78125 145.542969 C 288.1875 146.03125 286.367188 146.589844 284.246094 147.46875 C 272.875 152.171875 266.203125 163.847656 260.3125 174.125 C 259.527344 175.488281 258.75 176.855469 257.972656 178.21875 C 256.714844 180.355469 255.4375 182.605469 254.085938 184.988281 C 244.976562 201.058594 233.617188 221.0625 217.824219 224.945312 C 216.019531 225.382812 214.1875 225.59375 212.328125 225.585938 Z M 212.328125 225.585938 " fill-opacity="1" fill-rule="nonzero"/><path fill="#ffffff" d="M 199.5 239.285156 C 194.804688 239.285156 189.945312 237.863281 184.984375 234.59375 C 176.71875 229.136719 169.789062 220.667969 163.078125 212.449219 C 151.839844 198.671875 140.210938 184.429688 122.035156 184.355469 L 121.601562 184.355469 C 106.625 184.355469 90.761719 187.527344 75.40625 190.59375 C 67.964844 192.074219 60.9375 193.476562 53.96875 194.558594 L 53.867188 193.875 C 60.824219 192.796875 67.835938 191.398438 75.269531 189.917969 C 90.660156 186.84375 106.558594 183.664062 121.601562 183.664062 L 122.042969 183.664062 C 140.539062 183.742188 152.269531 198.113281 163.609375 212.007812 C 170.285156 220.195312 177.183594 228.644531 185.359375 234.023438 C 210.945312 250.835938 233.472656 217.1875 248.375 194.917969 C 250.695312 191.453125 252.886719 188.175781 254.839844 185.480469 C 255.710938 184.273438 256.574219 183.070312 257.417969 181.890625 C 266.972656 168.589844 275.160156 157.113281 290.96875 151.679688 C 303.378906 147.40625 307.804688 138.570312 313.398438 127.378906 L 314.613281 124.957031 L 315.226562 125.261719 C 314.8125 126.082031 314.410156 126.886719 314.011719 127.683594 C 308.554688 138.5625 303.863281 147.960938 291.191406 152.320312 C 275.597656 157.683594 267.429688 169.082031 257.976562 182.285156 L 255.390625 185.917969 C 253.445312 188.597656 251.261719 191.867188 248.941406 195.328125 C 236.746094 213.519531 219.503906 239.285156 199.5 239.285156 Z M 199.5 239.285156 " fill-opacity="1" fill-rule="nonzero"/><path fill="#ffffff" d="M 189.472656 252.230469 C 188.421875 252.226562 187.371094 252.15625 186.328125 252.007812 C 185.285156 251.863281 184.257812 251.644531 183.242188 251.355469 C 182.230469 251.070312 181.238281 250.710938 180.277344 250.285156 C 179.3125 249.859375 178.382812 249.371094 177.484375 248.816406 C 168.769531 243.550781 162.089844 234.242188 155.648438 225.246094 C 145.183594 210.675781 135.316406 196.917969 117.390625 198.003906 C 104.257812 198.792969 90.707031 201.933594 77.597656 204.972656 C 69.503906 206.847656 61.128906 208.785156 53.027344 210.117188 L 52.914062 209.433594 C 60.980469 208.101562 69.347656 206.164062 77.425781 204.292969 C 90.5625 201.25 104.148438 198.105469 117.335938 197.308594 C 135.632812 196.214844 146.078125 210.757812 156.183594 224.835938 C 162.609375 233.777344 169.246094 243.023438 177.839844 248.214844 C 202.777344 263.296875 231.574219 223.558594 248.773438 199.8125 C 252.390625 194.824219 255.507812 190.511719 258.085938 187.371094 L 259.21875 186.003906 C 264.679688 179.3125 270.386719 172.355469 277.101562 166.796875 C 281.589844 163.046875 285.894531 161.464844 290.460938 159.792969 C 292.714844 158.960938 295.039062 158.109375 297.410156 156.960938 C 307.179688 152.253906 311.570312 143.769531 316.222656 134.789062 C 316.832031 133.613281 317.445312 132.425781 318.078125 131.226562 L 318.6875 131.546875 C 318.054688 132.742188 317.4375 133.929688 316.832031 135.101562 C 312.125 144.1875 307.679688 152.765625 297.722656 157.574219 C 295.4375 158.644531 293.097656 159.597656 290.714844 160.429688 C 286.210938 162.085938 281.957031 163.648438 277.558594 167.320312 C 270.890625 172.871094 265.230469 179.769531 259.765625 186.429688 L 258.632812 187.792969 C 256.066406 190.914062 252.957031 195.21875 249.34375 200.199219 C 234.660156 220.457031 211.648438 252.230469 189.472656 252.230469 Z M 189.472656 252.230469 " fill-opacity="1" fill-rule="nonzero"/><path fill="#ffffff" d="M 186.398438 265.414062 C 184.628906 265.390625 182.894531 265.128906 181.199219 264.625 C 179.503906 264.125 177.90625 263.40625 176.40625 262.464844 C 168.074219 257.519531 161.828125 248.539062 155.777344 239.828125 C 146.40625 226.363281 136.722656 212.449219 119.246094 213.808594 C 105.65625 214.867188 91.332031 217.949219 77.488281 220.925781 C 69.386719 222.667969 61.019531 224.46875 53.027344 225.800781 L 52.914062 225.117188 C 60.890625 223.75 69.25 221.984375 77.34375 220.242188 C 91.210938 217.261719 105.554688 214.175781 119.191406 213.113281 C 137.050781 211.746094 146.855469 225.804688 156.34375 239.425781 C 162.339844 248.046875 168.550781 256.964844 176.726562 261.839844 C 190.421875 269.992188 201.777344 258.808594 210.910156 249.828125 C 222.695312 238.226562 233.535156 225.335938 244.015625 212.867188 C 249.523438 206.316406 255.222656 199.539062 260.980469 193.035156 L 262.476562 191.34375 C 268.433594 184.601562 274.589844 177.632812 281.910156 172.371094 C 285.65625 169.640625 289.675781 168.277344 293.566406 166.972656 C 296.488281 166.066406 299.308594 164.917969 302.03125 163.527344 C 309.644531 159.363281 313.417969 152.445312 317.425781 145.101562 C 318.632812 142.890625 319.882812 140.605469 321.246094 138.398438 L 321.828125 138.753906 C 320.460938 140.945312 319.226562 143.222656 318.027344 145.429688 C 313.972656 152.839844 310.144531 159.84375 302.328125 164.101562 C 299.574219 165.511719 296.71875 166.675781 293.765625 167.601562 C 289.921875 168.910156 285.945312 170.269531 282.28125 172.902344 C 275.027344 178.125 268.890625 185.0625 262.960938 191.78125 L 261.464844 193.535156 C 255.707031 200.023438 250.015625 206.800781 244.515625 213.324219 C 234.019531 225.804688 223.171875 238.710938 211.359375 250.332031 C 204.386719 257.246094 196.085938 265.414062 186.398438 265.414062 Z M 186.398438 265.414062 " fill-opacity="1" fill-rule="nonzero"/><path fill="#ffffff" d="M 188.964844 272.394531 C 187.316406 272.382812 185.695312 272.160156 184.105469 271.730469 C 182.515625 271.300781 181.003906 270.675781 179.574219 269.855469 C 171.96875 265.667969 165.882812 259.066406 159.992188 252.6875 C 149.65625 241.480469 139.890625 230.894531 122.863281 233.003906 C 100.507812 235.734375 77.015625 238.851562 53.035156 242.191406 L 52.941406 241.507812 C 76.90625 238.144531 100.410156 235.050781 122.761719 232.324219 C 140.136719 230.179688 150.023438 240.886719 160.480469 252.222656 C 166.332031 258.5625 172.386719 265.128906 179.886719 269.285156 C 193.113281 276.570312 203.539062 266.722656 213.621094 257.203125 L 214.445312 256.425781 C 225.984375 245.507812 236.570312 233.222656 246.808594 221.378906 C 252.59375 214.578125 258.640625 207.578125 264.761719 200.929688 L 266.550781 198.980469 C 272.535156 192.453125 278.722656 185.707031 286.101562 180.851562 C 289.152344 178.855469 292.53125 177.613281 295.792969 176.410156 C 299.054688 175.210938 302.289062 174.023438 305.1875 172.097656 C 311.226562 168.105469 314.566406 162.222656 318.09375 156 C 319.835938 152.777344 321.769531 149.675781 323.902344 146.699219 L 324.449219 147.105469 C 322.332031 150.0625 320.414062 153.136719 318.6875 156.332031 C 315.277344 162.351562 311.742188 168.617188 305.566406 172.671875 C 302.597656 174.636719 299.257812 175.867188 296.011719 177.050781 C 292.761719 178.238281 289.445312 179.46875 286.457031 181.425781 C 279.148438 186.203125 272.992188 192.945312 267.035156 199.445312 L 265.238281 201.394531 C 259.132812 208.019531 253.121094 215.003906 247.296875 221.75 C 237.074219 233.6875 226.484375 245.972656 214.910156 256.890625 L 214.089844 257.667969 C 206.652344 264.664062 198.460938 272.394531 188.964844 272.394531 Z M 188.964844 272.394531 " fill-opacity="1" fill-rule="nonzero"/><path fill="#ffffff" d="M 192.28125 272.894531 C 189.585938 272.875 186.96875 272.421875 184.425781 271.527344 C 177.136719 269.039062 171.269531 265.570312 165.589844 262.226562 C 154.609375 255.757812 145.117188 250.167969 129.074219 253.519531 C 114.132812 256.636719 99.042969 257.007812 84.488281 257.363281 C 74.210938 257.605469 63.585938 257.867188 53.023438 259.082031 L 52.941406 258.398438 C 63.539062 257.175781 74.183594 256.925781 84.476562 256.671875 C 99.019531 256.316406 114.050781 255.949219 128.9375 252.84375 C 145.246094 249.429688 155.292969 255.363281 165.929688 261.632812 C 171.582031 264.964844 177.421875 268.402344 184.644531 270.875 C 198.15625 275.5 208.644531 266.929688 217.890625 259.375 C 229.597656 249.820312 240.207031 238.59375 250.472656 227.75 C 255.050781 222.917969 259.785156 217.917969 264.550781 213.132812 L 264.769531 212.914062 C 272.398438 205.25 280.285156 197.328125 289.65625 192.074219 C 291.867188 190.882812 294.140625 189.832031 296.480469 188.917969 C 300.195312 187.390625 303.695312 185.945312 306.835938 183.316406 C 311.578125 179.34375 314.578125 173.816406 317.480469 168.46875 C 319.902344 164.011719 322.398438 159.398438 325.914062 155.660156 L 326.414062 156.128906 C 322.960938 159.808594 320.484375 164.371094 318.078125 168.792969 C 315.144531 174.199219 312.117188 179.78125 307.269531 183.84375 C 304.054688 186.53125 300.335938 188.066406 296.742188 189.546875 C 294.421875 190.453125 292.167969 191.492188 289.976562 192.667969 C 280.6875 197.878906 272.835938 205.769531 265.230469 213.398438 L 265.019531 213.609375 C 260.242188 218.386719 255.527344 223.390625 250.957031 228.222656 C 240.679688 239.078125 230.054688 250.304688 218.308594 259.898438 C 210.792969 266.074219 202.457031 272.894531 192.28125 272.894531 Z M 192.28125 272.894531 " fill-opacity="1" fill-rule="nonzero"/><path fill="#ffffff" d="M 107.460938 277.820312 C 100.636719 277.820312 93.8125 277.335938 87.097656 276.859375 C 75.875 276.054688 64.242188 275.226562 53.023438 276.679688 L 52.933594 276 C 64.253906 274.546875 75.890625 275.371094 87.144531 276.175781 C 102.402344 277.265625 118.1875 278.394531 133.179688 273.746094 C 135.789062 272.933594 138.386719 272.011719 140.890625 271.117188 C 147.402344 268.804688 154.125 266.417969 161.421875 265.933594 C 167.882812 265.503906 174.179688 266.613281 180.269531 267.742188 C 183.523438 268.335938 186.882812 268.941406 190.238281 269.304688 C 214.601562 271.957031 234.882812 252.925781 252.769531 236.074219 C 257.351562 231.777344 261.644531 227.710938 265.929688 224.113281 C 272.601562 218.476562 280.097656 212.574219 289.628906 207.570312 C 290.84375 206.929688 292.011719 206.347656 293.148438 205.78125 C 298.09375 203.3125 302.363281 201.183594 306.484375 196.449219 C 310.367188 191.992188 313.167969 186.578125 315.867188 181.34375 C 319.214844 174.875 322.695312 168.179688 328.222656 163.199219 L 328.679688 163.703125 C 323.21875 168.605469 319.808594 175.238281 316.476562 181.652344 C 313.746094 186.925781 310.941406 192.371094 306.996094 196.898438 C 302.785156 201.738281 298.460938 203.890625 293.449219 206.390625 C 292.324219 206.957031 291.15625 207.535156 289.945312 208.171875 C 280.472656 213.144531 273.011719 219.023438 266.371094 224.632812 C 262.148438 228.226562 257.808594 232.273438 253.277344 236.574219 C 235.28125 253.492188 214.882812 272.675781 190.199219 270.011719 C 186.785156 269.644531 183.449219 269.03125 180.1875 268.445312 C 174.132812 267.34375 167.902344 266.21875 161.503906 266.640625 C 154.300781 267.121094 147.914062 269.371094 141.160156 271.789062 C 138.640625 272.683594 136.039062 273.609375 133.414062 274.421875 C 124.902344 277.027344 116.1875 277.820312 107.460938 277.820312 Z M 107.460938 277.820312 " fill-opacity="1" fill-rule="nonzero"/><path fill="#ffffff" d="M 116.34375 296.472656 C 107.28125 296.472656 98.179688 295.105469 89.238281 293.742188 C 78.375 292.082031 67.136719 290.371094 56.238281 291.195312 L 56.179688 290.511719 C 67.160156 289.648438 78.4375 291.367188 89.339844 293.058594 C 105.363281 295.503906 121.933594 298.027344 137.699219 292.429688 C 145.449219 289.648438 152.574219 285.8125 159.449219 282.140625 C 170.933594 275.949219 181.777344 270.109375 195.617188 268.648438 C 197.316406 268.472656 198.988281 268.316406 200.632812 268.164062 C 209.277344 267.359375 217.449219 266.59375 225.882812 262.765625 C 236.535156 257.925781 246.355469 251.089844 255.808594 244.476562 C 260.023438 241.527344 264.394531 238.484375 268.773438 235.660156 C 272.867188 233.003906 277.011719 230.8125 280.988281 228.691406 C 290.542969 223.628906 299.519531 218.84375 306.308594 208.703125 C 309.441406 203.851562 312.304688 198.847656 314.90625 193.691406 C 319.324219 185.277344 323.894531 176.574219 331.019531 169.449219 L 331.503906 169.933594 C 324.449219 176.984375 319.902344 185.632812 315.507812 194.011719 C 312.898438 199.199219 310.019531 204.238281 306.875 209.121094 C 299.988281 219.355469 290.914062 224.132812 281.308594 229.265625 C 277.34375 231.375 273.238281 233.558594 269.144531 236.199219 C 264.78125 239.015625 260.421875 242.0625 256.175781 245 C 246.675781 251.636719 236.855469 258.488281 226.148438 263.351562 C 217.617188 267.230469 209.394531 267.992188 200.695312 268.8125 C 199.050781 268.96875 197.378906 269.121094 195.683594 269.304688 C 181.960938 270.742188 171.171875 276.558594 159.75 282.714844 C 152.847656 286.433594 145.71875 290.273438 137.910156 293.050781 C 134.441406 294.238281 130.894531 295.117188 127.273438 295.691406 C 123.652344 296.265625 120.011719 296.527344 116.34375 296.472656 Z M 116.34375 296.472656 " fill-opacity="1" fill-rule="nonzero"/><path fill="#ffffff" d="M 122.609375 310.636719 C 112.75 310.636719 103.324219 308.039062 94.113281 305.492188 C 84.773438 302.921875 75.125 300.257812 65.046875 300.257812 L 64.601562 300.257812 L 64.601562 299.578125 L 65.046875 299.578125 C 75.222656 299.578125 84.910156 302.25 94.296875 304.839844 C 108.277344 308.695312 121.484375 312.34375 136.375 308.058594 C 148.132812 304.648438 158.292969 297.761719 168.121094 291.074219 C 177.847656 284.460938 187.914062 277.617188 199.472656 274.222656 C 204.445312 272.882812 209.480469 271.867188 214.582031 271.179688 C 219.84375 270.363281 225.289062 269.507812 230.496094 267.898438 C 240.535156 264.792969 250.117188 260.179688 259.382812 255.714844 C 261.730469 254.585938 264.078125 253.449219 266.441406 252.339844 L 269.257812 251.023438 C 285.335938 243.515625 295.046875 238.957031 304.8125 222.359375 C 307.769531 217.328125 310.367188 212.039062 312.878906 206.9375 C 318.542969 195.417969 324.398438 183.507812 334.535156 174.4375 L 334.992188 174.941406 C 324.960938 183.925781 319.390625 195.246094 313.496094 207.238281 C 310.976562 212.355469 308.375 217.652344 305.402344 222.707031 C 295.527344 239.503906 285.195312 244.339844 269.546875 251.664062 L 266.734375 252.980469 C 264.371094 254.089844 262.019531 255.214844 259.675781 256.351562 C 250.390625 260.828125 240.789062 265.453125 230.695312 268.574219 C 225.445312 270.191406 219.972656 271.050781 214.683594 271.875 C 209.613281 272.558594 204.609375 273.566406 199.671875 274.898438 C 188.207031 278.265625 178.195312 285.074219 168.519531 291.660156 C 158.644531 298.375 148.433594 305.308594 136.574219 308.722656 C 132.007812 310.019531 127.355469 310.660156 122.609375 310.636719 Z M 122.609375 310.636719 " fill-opacity="1" fill-rule="nonzero"/><path fill="#ffffff" d="M 122.855469 322.828125 C 119.59375 322.8125 116.363281 322.480469 113.167969 321.824219 C 109.972656 321.171875 106.871094 320.210938 103.863281 318.945312 C 101.015625 317.777344 98.308594 316.371094 95.675781 315.015625 C 88.808594 311.4375 82.3125 308.074219 73.933594 309.074219 L 73.851562 308.394531 C 82.433594 307.355469 89.027344 310.777344 96 314.398438 C 98.609375 315.761719 101.304688 317.128906 104.121094 318.300781 C 114.535156 322.566406 124.636719 323.25 135.910156 320.453125 C 149.417969 317.101562 161.421875 310.152344 173.027344 303.433594 C 182.050781 298.207031 191.386719 292.804688 201.402344 289.101562 C 213.191406 284.734375 225.542969 281.15625 237.484375 277.699219 C 247.195312 274.886719 257.226562 271.980469 266.898438 268.660156 C 287.308594 261.667969 295.070312 252.203125 304.746094 233.632812 C 307.195312 228.9375 309.453125 224.015625 311.636719 219.261719 C 318.386719 204.5625 325.363281 189.363281 338.765625 178.996094 L 339.179688 179.535156 C 325.914062 189.773438 318.96875 204.910156 312.253906 219.535156 C 310.070312 224.3125 307.808594 229.222656 305.351562 233.933594 C 295.800781 252.292969 287.609375 262.269531 267.136719 269.296875 C 257.445312 272.613281 247.40625 275.519531 237.6875 278.339844 C 225.761719 281.792969 213.414062 285.367188 201.648438 289.730469 C 191.691406 293.421875 182.382812 298.8125 173.382812 304.027344 C 161.734375 310.769531 149.6875 317.742188 136.089844 321.085938 C 131.75 322.210938 127.335938 322.789062 122.855469 322.828125 Z M 122.855469 322.828125 " fill-opacity="1" fill-rule="nonzero"/><path fill="#ffffff" d="M 94.546875 324.117188 C 93.410156 317.203125 89.640625 312.257812 85.675781 307.015625 C 83.25 304.015625 81.097656 300.832031 79.21875 297.460938 C 75.125 289.53125 74.824219 280.804688 74.558594 272.359375 C 74.511719 270.847656 74.464844 269.324219 74.394531 267.800781 C 74.0625 260.390625 73.253906 252.535156 72.476562 244.949219 C 70.828125 228.820312 69.121094 212.191406 71.386719 196.726562 C 73.433594 182.800781 83.050781 170.0625 91.53125 158.824219 C 93.027344 156.847656 94.433594 154.976562 95.804688 153.105469 C 97.441406 150.875 99.269531 148.519531 101.207031 146.03125 C 109.902344 134.835938 120.726562 120.90625 121.277344 107.648438 C 121.960938 91.953125 108.730469 83.082031 94.738281 73.648438 C 84.03125 66.421875 72.96875 58.984375 68.648438 48.179688 L 69.285156 47.929688 C 73.53125 58.535156 84.496094 65.917969 95.105469 73.058594 C 108.632812 82.152344 122.625 91.570312 121.949219 107.648438 C 121.382812 121.128906 110.488281 135.152344 101.734375 146.417969 C 99.804688 148.910156 97.972656 151.257812 96.34375 153.480469 C 94.976562 155.359375 93.558594 157.226562 92.066406 159.207031 C 83.628906 170.386719 74.070312 183.042969 72.046875 196.796875 C 69.789062 212.144531 71.496094 228.765625 73.140625 244.84375 C 73.925781 252.453125 74.730469 260.316406 75.0625 267.75 C 75.132812 269.269531 75.179688 270.792969 75.226562 272.3125 C 75.5 281.0625 75.761719 289.328125 79.8125 297.121094 C 81.675781 300.464844 83.804688 303.625 86.203125 306.605469 C 90.0625 311.675781 94.058594 316.925781 95.21875 324.007812 Z M 94.546875 324.117188 " fill-opacity="1" fill-rule="nonzero"/><path fill="#ffffff" d="M 105.707031 330.839844 C 105.023438 325.324219 103.441406 319.921875 101.882812 314.746094 C 100.691406 310.761719 99.453125 306.640625 98.648438 302.464844 C 97.285156 295.257812 96.703125 287.761719 96.164062 280.523438 C 95.808594 275.746094 95.441406 270.851562 94.847656 266.082031 C 94.023438 259.476562 92.679688 252.523438 91.25 245.164062 C 87.839844 227.457031 84.285156 209.148438 87.472656 193.109375 C 90.332031 178.738281 100.152344 166.953125 109.644531 155.578125 C 119.796875 143.382812 130.300781 130.777344 132.101562 115.09375 C 133.960938 98.953125 120.242188 87.113281 106.976562 75.601562 C 97.585938 67.460938 87.875 59.050781 84.03125 49.265625 L 84.667969 49.015625 C 88.480469 58.648438 98.132812 66.996094 107.460938 75.074219 C 120.855469 86.675781 134.710938 98.660156 132.820312 115.15625 C 130.988281 131.042969 120.425781 143.730469 110.203125 156 C 100.757812 167.335938 91 179.050781 88.175781 193.246094 C 85.015625 209.160156 88.542969 227.402344 91.953125 245.042969 C 93.382812 252.414062 94.726562 259.375 95.558594 266.007812 C 96.160156 270.785156 96.527344 275.71875 96.882812 280.476562 C 97.414062 287.703125 97.972656 295.175781 99.351562 302.3125 C 100.152344 306.449219 101.398438 310.554688 102.566406 314.523438 C 104.136719 319.75 105.753906 325.152344 106.414062 330.730469 Z M 105.707031 330.839844 " fill-opacity="1" fill-rule="nonzero"/><path fill="#ffffff" d="M 119.28125 335.027344 C 119.246094 307.089844 117.527344 285.527344 113.703125 265.121094 C 112.578125 259.089844 110.90625 252.578125 109.136719 245.683594 C 104.445312 227.367188 99.125 206.609375 103.226562 189.890625 C 106.136719 178.042969 114.261719 168.085938 122.125 158.457031 C 131.339844 147.160156 140.871094 135.484375 141.828125 120.804688 C 142.890625 104.425781 130.730469 91.210938 118.964844 78.40625 C 110.832031 69.535156 102.417969 60.390625 98.683594 50.378906 L 99.324219 50.140625 C 103.011719 60.023438 111.375 69.132812 119.46875 77.941406 C 131.332031 90.847656 143.589844 104.195312 142.507812 120.847656 C 141.542969 135.746094 131.9375 147.507812 122.652344 158.886719 C 114.84375 168.441406 106.761719 178.355469 103.890625 190.054688 C 99.828125 206.609375 105.125 227.273438 109.800781 245.515625 C 111.566406 252.417969 113.214844 258.9375 114.371094 264.992188 C 118.207031 285.464844 119.929688 307.042969 119.960938 335.027344 Z M 119.28125 335.027344 " fill-opacity="1" fill-rule="nonzero"/><path fill="#ffffff" d="M 138.285156 332.277344 L 137.601562 332.277344 C 137.890625 304.824219 135.816406 282.871094 130.882812 261.09375 C 129.660156 255.703125 127.980469 249.902344 126.199219 243.753906 C 120.816406 225.121094 114.742188 204.023438 119.519531 187.007812 C 122.359375 177.023438 129.105469 168.433594 135.632812 160.128906 C 144.011719 149.460938 152.691406 138.433594 152.917969 124.457031 C 153.203125 108.230469 142.074219 94.070312 131.316406 80.378906 C 124.03125 71.085938 116.472656 61.46875 112.832031 51.476562 L 113.472656 51.246094 C 117.082031 61.140625 124.601562 70.707031 131.898438 79.960938 C 142.722656 93.742188 153.90625 107.996094 153.640625 124.5 C 153.394531 138.707031 144.660156 149.832031 136.203125 160.585938 C 129.722656 168.835938 123.019531 177.375 120.222656 187.199219 C 115.445312 204.023438 121.519531 225.027344 126.875 243.5625 C 128.65625 249.703125 130.34375 255.539062 131.5625 260.945312 C 136.496094 282.769531 138.570312 304.769531 138.285156 332.277344 Z M 138.285156 332.277344 " fill-opacity="1" fill-rule="nonzero"/><path fill="#ffffff" d="M 155.757812 326.5 C 154.8125 301.738281 152.875 280.890625 146.496094 259.621094 C 145.492188 256.28125 144.375 252.828125 143.1875 249.171875 C 136.914062 229.859375 129.808594 207.96875 135.992188 189.445312 C 138.871094 180.820312 144.746094 172.644531 150.433594 164.734375 C 159.480469 152.148438 168.859375 139.128906 166.734375 123.71875 C 164.613281 108.167969 154.617188 94.777344 144.953125 81.832031 C 137.980469 72.484375 130.765625 62.820312 126.609375 52.445312 L 127.242188 52.195312 C 131.339844 62.484375 138.550781 72.113281 145.5 81.421875 C 155.214844 94.445312 165.289062 107.902344 167.414062 123.625 C 169.535156 139.347656 160.117188 152.4375 150.992188 165.136719 C 145.335938 173 139.488281 181.132812 136.660156 189.664062 C 130.519531 207.96875 137.617188 229.75 143.855469 248.960938 C 145.042969 252.617188 146.160156 256.078125 147.171875 259.429688 C 153.570312 280.789062 155.511719 301.691406 156.457031 326.5 Z M 155.757812 326.5 " fill-opacity="1" fill-rule="nonzero"/><path fill="#ffffff" d="M 172.46875 319.191406 L 172.425781 318.726562 C 170.503906 297.332031 168.839844 278.859375 159.097656 259.265625 C 151.019531 243.023438 142.796875 221.859375 150.910156 202.1875 C 154.21875 194.148438 159.75 186.292969 165.085938 178.691406 C 174.789062 164.90625 184.8125 150.640625 182.992188 133.964844 C 181.011719 115.8125 169.59375 99.515625 158.5625 83.75 C 151.59375 73.808594 144.394531 63.53125 139.828125 53.039062 L 140.457031 52.765625 C 144.992188 63.179688 152.171875 73.429688 159.113281 83.347656 C 170.210938 99.179688 181.675781 115.550781 183.679688 133.847656 C 185.53125 150.785156 175.421875 165.152344 165.652344 179.042969 C 160.335938 186.613281 154.828125 194.433594 151.546875 202.40625 C 143.539062 221.828125 151.710938 242.8125 159.734375 258.917969 C 169.535156 278.632812 171.207031 297.132812 173.128906 318.625 L 173.179688 319.085938 Z M 172.46875 319.191406 " fill-opacity="1" fill-rule="nonzero"/><path fill="#ffffff" d="M 188.171875 311.640625 C 187.769531 308.523438 187.523438 305.105469 187.257812 301.480469 C 186.648438 292.976562 185.953125 283.339844 182.875 276.3125 C 180.949219 271.910156 178.453125 269.992188 175.300781 267.5625 C 174.339844 266.820312 173.347656 266.054688 172.285156 265.160156 C 159.46875 254.339844 156.984375 236.835938 165.644531 218.332031 C 169.136719 210.867188 174.351562 203.640625 179.875 195.984375 C 191.203125 180.289062 202.917969 164.039062 199.261719 145.222656 C 195.34375 125.089844 183.613281 106.585938 172.269531 88.691406 C 165.179688 77.503906 157.851562 65.9375 152.65625 54.261719 L 153.285156 53.988281 C 158.453125 65.589844 165.765625 77.191406 172.84375 88.320312 C 184.226562 106.277344 195.992188 124.839844 199.929688 145.09375 C 203.644531 164.203125 191.84375 180.582031 180.425781 196.386719 C 174.925781 204.015625 169.730469 211.214844 166.265625 218.621094 C 157.734375 236.828125 160.15625 254.03125 172.75 264.636719 C 173.800781 265.523438 174.796875 266.289062 175.738281 267.015625 C 178.972656 269.507812 181.523438 271.480469 183.519531 276.039062 C 186.644531 283.175781 187.34375 292.875 187.960938 301.433594 C 188.21875 305.042969 188.464844 308.457031 188.867188 311.554688 Z M 188.171875 311.640625 " fill-opacity="1" fill-rule="nonzero"/><path fill="#ffffff" d="M 203.375 305.34375 C 203.089844 303.507812 202.898438 300.6875 202.695312 297.425781 C 202.09375 288.410156 201.28125 276.058594 197.546875 272.476562 C 194.308594 269.363281 192.929688 269.625 190.640625 270.054688 C 188.957031 270.417969 187.257812 270.511719 185.542969 270.332031 C 180.167969 269.742188 176.433594 267.460938 174.433594 263.558594 C 169.835938 254.542969 175.738281 239.589844 179.949219 232.164062 C 183.59375 225.75 188.507812 219.425781 193.707031 212.722656 C 205.992188 196.9375 218.65625 180.648438 215.726562 161.472656 C 213.441406 146.515625 205.019531 131.308594 197.59375 117.890625 C 196.230469 115.402344 194.90625 113.039062 193.644531 110.691406 C 191.363281 106.46875 189.023438 102.210938 186.765625 98.089844 C 179.300781 84.496094 171.582031 70.4375 165.167969 55.898438 L 165.792969 55.621094 C 172.1875 70.128906 179.902344 84.179688 187.367188 97.761719 C 189.625 101.855469 191.964844 106.148438 194.246094 110.363281 C 195.507812 112.710938 196.8125 115.074219 198.191406 117.566406 C 205.640625 131.0625 214.089844 146.335938 216.425781 161.40625 C 219.394531 180.832031 206.617188 197.28125 194.265625 213.179688 C 189.078125 219.855469 184.179688 226.144531 180.5625 232.535156 C 176.414062 239.835938 170.59375 254.515625 175.101562 263.242188 C 176.988281 266.933594 180.5625 269.09375 185.671875 269.660156 C 187.320312 269.835938 188.953125 269.742188 190.566406 269.378906 C 192.902344 268.949219 194.578125 268.636719 198.074219 271.980469 C 201.996094 275.746094 202.851562 288.253906 203.429688 297.386719 C 203.644531 300.628906 203.828125 303.433594 204.113281 305.234375 Z M 203.375 305.34375 " fill-opacity="1" fill-rule="nonzero"/><path fill="#ffffff" d="M 218.207031 300.566406 C 217.945312 299.09375 217.75 296.855469 217.523438 294.269531 C 216.777344 286.007812 215.652344 273.527344 211.25 270.574219 C 207.605469 268.121094 205.730469 269.050781 203.136719 270.328125 C 201.671875 271.117188 200.128906 271.691406 198.503906 272.058594 C 193.042969 273.171875 189.25 272.257812 187.292969 269.332031 C 182.921875 262.832031 188.929688 247.71875 194.367188 239.550781 C 197.921875 234.207031 202.46875 228.871094 207.285156 223.21875 C 220.421875 207.808594 234.011719 191.875 230.640625 172.628906 C 227.957031 157.34375 219.980469 142.304688 212.269531 127.761719 C 210.554688 124.523438 208.929688 121.46875 207.375 118.425781 C 205 113.765625 202.550781 109.042969 200.1875 104.484375 C 192.355469 89.359375 184.253906 73.730469 177.308594 57.785156 L 177.933594 57.511719 C 184.867188 73.4375 192.949219 89.058594 200.796875 104.167969 C 203.160156 108.734375 205.574219 113.449219 207.984375 118.117188 C 209.539062 121.152344 211.15625 124.210938 212.871094 127.441406 C 220.246094 141.355469 228.613281 157.117188 231.292969 172.480469 C 234.707031 192.039062 220.417969 208.820312 207.792969 223.628906 C 203.015625 229.265625 198.457031 234.582031 194.921875 239.890625 C 189.589844 247.910156 183.648438 262.683594 187.84375 268.914062 C 189.636719 271.582031 193.171875 272.402344 198.355469 271.351562 C 199.917969 270.996094 201.410156 270.433594 202.824219 269.671875 C 205.417969 268.398438 207.648438 267.296875 211.613281 269.964844 C 216.289062 273.097656 217.386719 285.273438 218.191406 294.164062 C 218.421875 296.738281 218.621094 298.941406 218.875 300.410156 Z M 218.207031 300.566406 " fill-opacity="1" fill-rule="nonzero"/><path fill="#ffffff" d="M 232.347656 296.007812 C 232.023438 294.289062 231.773438 292.132812 231.488281 289.628906 C 230.589844 281.902344 229.371094 271.316406 224.621094 267.339844 C 221.535156 264.757812 219.726562 264.984375 217.230469 265.289062 C 215.746094 265.519531 214.257812 265.582031 212.757812 265.484375 C 207.164062 265.019531 203.566406 263.121094 202.066406 259.84375 C 198.976562 253.097656 205.476562 242.539062 209.613281 236.847656 C 212.976562 232.234375 217.375 227.648438 222.027344 222.789062 C 233.628906 210.703125 246.75 197 244.4375 180.476562 C 242.425781 166.058594 234.277344 150.722656 227.085938 137.191406 C 225.035156 133.28125 223.042969 129.582031 221.257812 125.992188 C 218.675781 120.785156 216.0625 115.605469 213.460938 110.425781 C 205.152344 93.910156 196.558594 76.835938 189.019531 59.550781 L 189.636719 59.277344 C 197.179688 76.542969 205.765625 93.609375 214.070312 110.121094 C 216.675781 115.296875 219.277344 120.484375 221.871094 125.6875 C 223.652344 129.273438 225.609375 132.96875 227.691406 136.871094 C 234.90625 150.429688 243.085938 165.847656 245.085938 180.390625 C 247.441406 197.238281 234.167969 211.097656 222.5 223.265625 C 217.859375 228.105469 213.476562 232.675781 210.140625 237.257812 C 206.800781 241.835938 199.601562 252.890625 202.632812 259.566406 C 203.996094 262.601562 207.410156 264.34375 212.757812 264.804688 C 214.210938 264.90625 215.652344 264.84375 217.085938 264.621094 C 219.660156 264.300781 221.691406 264.042969 225.003906 266.820312 C 229.964844 270.96875 231.199219 281.710938 232.105469 289.550781 C 232.394531 292.035156 232.644531 294.1875 232.964844 295.882812 Z M 232.347656 296.007812 " fill-opacity="1" fill-rule="nonzero"/><path fill="#ffffff" d="M 245.851562 291.648438 C 245.324219 289.085938 244.867188 286.515625 244.433594 284.03125 C 242.164062 271.304688 240.03125 259.277344 229.097656 251.050781 C 217.898438 242.605469 216.984375 236.300781 225.175781 224.058594 C 228.128906 219.636719 232.339844 215.410156 236.773438 210.933594 C 245.871094 201.804688 255.273438 192.351562 254.960938 180.226562 C 254.632812 167.894531 246.265625 152.695312 239.550781 140.488281 C 237.503906 136.726562 235.527344 133.179688 233.941406 129.984375 C 230.996094 124.019531 227.957031 117.980469 225.023438 112.144531 C 216.648438 95.476562 207.960938 78.234375 200.25 60.855469 L 200.878906 60.582031 C 208.609375 77.941406 217.257812 95.175781 225.636719 111.839844 C 228.570312 117.679688 231.601562 123.714844 234.558594 129.675781 C 236.132812 132.867188 238.085938 136.40625 240.144531 140.160156 C 246.902344 152.445312 255.308594 167.71875 255.644531 180.210938 C 255.976562 192.707031 246.457031 202.1875 237.253906 211.425781 C 232.824219 215.875 228.640625 220.078125 225.71875 224.441406 C 217.800781 236.273438 218.683594 242.367188 229.492188 250.507812 C 240.628906 258.902344 242.792969 271.058594 245.078125 283.949219 C 245.523438 286.425781 245.980469 288.992188 246.5 291.542969 Z M 245.851562 291.648438 " fill-opacity="1" fill-rule="nonzero"/><path fill="#ffffff" d="M 258.734375 287.476562 C 257.410156 281.472656 256.640625 274.988281 255.894531 268.71875 C 254.421875 256.324219 252.90625 243.519531 247.132812 232.820312 C 246.027344 230.773438 244.800781 228.882812 243.613281 227.054688 C 239.402344 220.59375 235.769531 215.007812 239.941406 206.136719 C 242.042969 201.675781 245.550781 197.605469 248.949219 193.675781 C 254.519531 187.226562 260.277344 180.558594 260.203125 171.796875 C 260.113281 160.769531 253.03125 147.101562 247.347656 136.121094 C 245.707031 132.96875 244.164062 129.976562 242.890625 127.289062 C 238.386719 117.734375 233.65625 108.085938 229.078125 98.757812 C 223.234375 86.839844 217.1875 74.515625 211.546875 62.246094 L 212.167969 61.960938 C 217.808594 74.246094 223.847656 86.527344 229.691406 98.457031 C 234.261719 107.785156 239 117.433594 243.511719 126.996094 C 244.777344 129.683594 246.316406 132.660156 247.945312 135.804688 C 253.671875 146.855469 260.789062 160.597656 260.914062 171.789062 C 260.988281 180.804688 255.144531 187.574219 249.488281 194.121094 C 246.125 198.015625 242.664062 202.050781 240.617188 206.402344 C 236.605469 214.925781 240.140625 220.359375 244.234375 226.652344 C 245.433594 228.496094 246.667969 230.390625 247.789062 232.472656 C 253.625 243.28125 255.152344 256.152344 256.660156 268.609375 C 257.398438 274.867188 258.167969 281.335938 259.480469 287.300781 Z M 258.734375 287.476562 " fill-opacity="1" fill-rule="nonzero"/><path fill="#ffffff" d="M 271.109375 283.503906 C 268.882812 272.628906 268.570312 261.386719 268.261719 250.523438 C 267.949219 239.152344 267.621094 227.390625 265.082031 216.101562 C 264.15625 211.964844 261.800781 207.773438 259.519531 203.714844 C 256.519531 198.359375 253.378906 192.796875 253.527344 187.304688 C 253.644531 181.953125 255.726562 177.515625 257.746094 173.222656 C 260.222656 167.941406 262.78125 162.488281 261.667969 155.289062 C 258.195312 132.90625 246.710938 110.597656 235.601562 89.023438 C 231.199219 80.46875 227.027344 72.378906 223.398438 64.382812 L 224.019531 64.097656 C 227.648438 72.054688 231.808594 80.140625 236.214844 88.683594 C 247.351562 110.3125 258.867188 132.667969 262.351562 155.160156 C 263.5 162.558594 260.890625 168.125 258.367188 173.484375 C 256.378906 177.714844 254.328125 182.089844 254.21875 187.289062 C 254.09375 192.613281 257.160156 198.070312 260.128906 203.351562 C 262.429688 207.449219 264.800781 211.691406 265.757812 215.925781 C 268.308594 227.28125 268.636719 239.070312 268.953125 250.484375 C 269.257812 261.3125 269.566406 272.519531 271.785156 283.339844 Z M 271.109375 283.503906 " fill-opacity="1" fill-rule="nonzero"/><path fill="#ffffff" d="M 282.832031 278.796875 C 280.101562 264.253906 280.683594 249.453125 281.226562 235.183594 C 281.628906 224.808594 282.039062 214.082031 281.226562 203.503906 C 280.449219 193.738281 278.820312 186.21875 273.105469 178.9375 C 272.140625 177.769531 271.09375 176.679688 269.96875 175.667969 C 268.34375 174.132812 266.660156 172.542969 265.585938 170.578125 C 262.796875 165.453125 263.136719 159.65625 263.472656 154.0625 C 263.726562 151.03125 263.738281 148 263.511719 144.972656 C 261.328125 123.726562 251.800781 102.988281 242.582031 82.929688 C 239.941406 77.183594 237.449219 71.757812 235.117188 66.308594 L 235.738281 66.035156 C 238.070312 71.492188 240.5625 76.90625 243.203125 82.652344 C 252.441406 102.753906 261.996094 123.542969 264.1875 144.902344 C 264.414062 147.957031 264.394531 151.007812 264.132812 154.0625 C 263.804688 159.566406 263.453125 165.261719 266.179688 170.207031 C 267.203125 172.078125 268.84375 173.621094 270.433594 175.128906 C 271.582031 176.167969 272.652344 177.285156 273.640625 178.480469 C 279.453125 185.910156 281.113281 193.535156 281.898438 203.429688 C 282.742188 214.046875 282.332031 224.796875 281.898438 235.1875 C 281.351562 249.445312 280.785156 264.179688 283.488281 278.652344 Z M 282.832031 278.796875 " fill-opacity="1" fill-rule="nonzero"/><path fill="#ffffff" d="M 293.292969 267.167969 C 291.378906 252.980469 292.359375 238.65625 293.292969 224.800781 C 294.066406 213.527344 294.863281 201.867188 294.09375 190.347656 C 293.082031 175.222656 287.371094 167.664062 276.492188 158.21875 C 268.304688 151.125 266.414062 144.910156 265.183594 133.648438 C 262.644531 110.167969 254.414062 88.78125 246.453125 68.066406 L 247.09375 67.820312 C 255.0625 88.574219 263.3125 110.03125 265.882812 133.582031 C 267.082031 144.65625 268.972656 150.765625 276.957031 157.699219 C 287.976562 167.253906 293.757812 174.945312 294.789062 190.304688 C 295.558594 201.867188 294.789062 213.550781 293.984375 224.851562 C 293.042969 238.667969 292.058594 252.953125 293.984375 267.074219 Z M 293.292969 267.167969 " fill-opacity="1" fill-rule="nonzero"/><path fill="#ffffff" d="M 302.738281 250.105469 C 301.191406 239.378906 301.996094 227.695312 302.738281 216.394531 C 304.347656 192.886719 306.015625 168.570312 286.476562 152.019531 C 277.332031 144.273438 270.097656 138.152344 268.324219 124.785156 C 265.859375 106.359375 263.546875 88.96875 257.273438 69.546875 L 257.957031 69.335938 C 264.230469 88.820312 266.5625 106.242188 269.027344 124.6875 C 270.78125 137.804688 277.898438 143.84375 286.949219 151.496094 C 306.738281 168.277344 305.066406 192.761719 303.441406 216.433594 C 302.671875 227.703125 301.871094 239.359375 303.441406 250.003906 Z M 302.738281 250.105469 " fill-opacity="1" fill-rule="nonzero"/><path fill="#ffffff" d="M 311.339844 231.578125 C 308.347656 221.007812 308.785156 209.960938 309.214844 199.273438 C 309.9375 181.058594 310.621094 163.855469 295.027344 150.136719 L 294.636719 149.796875 C 283.71875 140.171875 275.054688 132.570312 273.40625 117.09375 C 272.949219 112.753906 272.589844 108.453125 272.242188 104.292969 C 271.292969 92.9375 270.398438 82.1875 267.605469 70.804688 L 268.289062 70.648438 C 271.089844 82.097656 271.980469 92.855469 272.9375 104.238281 C 273.285156 108.394531 273.621094 112.691406 274.105469 117.027344 C 275.714844 132.238281 284.273438 139.757812 295.101562 149.285156 L 295.492188 149.625 C 311.332031 163.5625 310.640625 180.921875 309.90625 199.300781 C 309.488281 209.933594 309.046875 220.925781 312.011719 231.375 Z M 311.339844 231.578125 " fill-opacity="1" fill-rule="nonzero"/><path fill="#ffffff" d="M 319.378906 214.265625 C 314.550781 204.492188 314.230469 194.125 313.917969 184.09375 C 313.480469 170.117188 313.070312 156.914062 301.265625 145.632812 L 299.253906 143.714844 C 289.910156 134.84375 283.738281 128.988281 281.175781 114.691406 C 279.863281 107.421875 279.5 99.9375 279.125 92.703125 C 278.800781 85.878906 278.445312 78.816406 277.324219 71.921875 L 278.007812 71.816406 C 279.148438 78.742188 279.496094 85.824219 279.824219 92.675781 C 280.171875 99.882812 280.503906 107.339844 281.828125 114.570312 C 284.359375 128.648438 290.460938 134.449219 299.707031 143.230469 L 301.722656 145.148438 C 313.734375 156.621094 314.148438 169.960938 314.585938 184.082031 C 314.898438 194.039062 315.222656 204.328125 319.976562 213.972656 Z M 319.378906 214.265625 " fill-opacity="1" fill-rule="nonzero"/><path fill="#ffffff" d="M 327.175781 200.015625 C 320.550781 191.261719 318.988281 180.847656 317.539062 170.773438 C 315.929688 159.800781 314.273438 148.457031 306.015625 139.175781 C 304.820312 137.8125 303.644531 136.5625 302.515625 135.335938 C 295.730469 127.957031 290.375 122.136719 288.640625 111.035156 C 287.570312 104.15625 287.460938 97.023438 287.351562 90.128906 C 287.261719 84.496094 287.171875 78.671875 286.558594 73.023438 L 287.242188 72.945312 C 287.863281 78.625 287.921875 84.464844 288.039062 90.117188 C 288.148438 96.988281 288.257812 104.09375 289.324219 110.925781 C 291.019531 121.84375 296.316406 127.582031 303.027344 134.871094 C 304.160156 136.105469 305.332031 137.375 306.527344 138.726562 C 314.921875 148.160156 316.597656 159.601562 318.222656 170.671875 C 319.691406 180.664062 321.207031 190.996094 327.730469 199.605469 Z M 327.175781 200.015625 " fill-opacity="1" fill-rule="nonzero"/><path fill="#ffffff" d="M 335.082031 190.011719 C 326.789062 180.957031 323.8125 169.75 320.941406 158.921875 C 318.460938 149.617188 315.910156 139.996094 310.019531 131.621094 C 308.429688 129.355469 306.757812 127.300781 305.132812 125.308594 C 300.726562 119.890625 296.570312 114.78125 295.164062 106.800781 C 294.058594 100.503906 294.414062 93.753906 294.761719 87.222656 C 295.070312 82.820312 295.152344 78.410156 295.007812 74 L 295.6875 74 C 295.832031 78.425781 295.746094 82.851562 295.429688 87.273438 C 295.082031 93.769531 294.746094 100.476562 295.820312 106.699219 C 297.183594 114.5 301.277344 119.550781 305.652344 124.894531 C 307.277344 126.894531 308.964844 128.988281 310.566406 131.242188 C 316.539062 139.730469 319.109375 149.414062 321.59375 158.777344 C 324.585938 170.023438 327.410156 180.613281 335.585938 189.582031 Z M 335.082031 190.011719 " fill-opacity="1" fill-rule="nonzero"/></svg>