<svg xmlns="http://www.w3.org/2000/svg" xmlns:xlink="http://www.w3.org/1999/xlink" width="500" zoomAndPan="magnify" viewBox="0 0 375 374.999991" height="500" preserveAspectRatio="xMidYMid meet" version="1.0"><defs><clipPath id="2e81059cc8"><path d="M 53.441406 71.492188 L 324.191406 71.492188 L 324.191406 305.492188 L 53.441406 305.492188 Z M 53.441406 71.492188 " clip-rule="nonzero"/></clipPath></defs><g clip-path="url(#2e81059cc8)"><path fill="#ffffff" d="M 189.269531 71.5 L 188.515625 72.804688 C 188.496094 72.800781 188.476562 72.796875 188.457031 72.796875 C 188.265625 72.796875 188.109375 72.953125 188.109375 73.144531 L 188.109375 73.503906 L 171.65625 101.875 C 171.566406 101.914062 171.507812 102.007812 171.519531 102.109375 L 53.441406 305.710938 L 324.484375 305.710938 Z M 288.496094 304.308594 C 287.808594 303.925781 285.898438 302.578125 282.949219 300.402344 L 313.25 300.402344 C 316.429688 302.164062 318.976562 303.539062 320.515625 304.308594 Z M 255.21875 304.308594 C 254.753906 303.886719 253.472656 302.496094 251.589844 300.402344 L 282.171875 300.402344 C 284.613281 302.203125 286.539062 303.585938 287.652344 304.308594 Z M 221.945312 304.308594 C 221.695312 303.8125 221.070312 302.429688 220.167969 300.402344 L 250.964844 300.402344 C 252.972656 302.636719 254.011719 303.753906 254.566406 304.308594 Z M 155.535156 304.308594 C 155.847656 303.753906 156.398438 302.644531 157.429688 300.402344 L 188.3125 300.402344 C 188.300781 302.367188 188.28125 303.738281 188.257812 304.308594 Z M 122.402344 304.308594 C 122.992188 303.75 124.070312 302.636719 126.109375 300.402344 L 156.921875 300.402344 C 155.953125 302.5 155.296875 303.851562 155.015625 304.308594 Z M 89.296875 304.308594 C 90.441406 303.582031 92.398438 302.199219 94.855469 300.402344 L 125.492188 300.402344 C 123.566406 302.507812 122.238281 303.898438 121.734375 304.308594 Z M 56.679688 304.308594 L 63.871094 300.402344 L 94.082031 300.402344 C 91.105469 302.574219 89.15625 303.925781 88.441406 304.308594 Z M 72.460938 275.695312 C 73.664062 275.316406 75.875 274.503906 78.765625 273.398438 L 63.519531 299.804688 L 56.164062 303.800781 Z M 89.117188 246.976562 C 90.191406 246.878906 92.058594 246.613281 94.445312 246.234375 L 79.132812 272.761719 C 76.242188 273.875 74.070312 274.683594 72.796875 275.117188 Z M 105.753906 218.285156 C 106.683594 218.476562 108.210938 218.730469 110.15625 219.023438 L 94.742188 245.722656 C 92.300781 246.117188 90.472656 246.386719 89.390625 246.503906 Z M 122.332031 189.699219 C 123.085938 190.207031 124.285156 190.964844 125.8125 191.90625 L 110.402344 218.597656 C 108.410156 218.300781 106.894531 218.054688 105.988281 217.882812 Z M 138.855469 161.207031 C 139.429688 162.054688 140.3125 163.304688 141.425781 164.859375 L 126.042969 191.507812 C 124.476562 190.539062 123.277344 189.785156 122.558594 189.304688 Z M 155.375 132.722656 L 157.089844 137.734375 L 141.679688 164.421875 C 140.53125 162.816406 139.644531 161.5625 139.109375 160.765625 Z M 255.316406 188.667969 C 255.222656 188.65625 255.125 188.703125 255.082031 188.792969 C 254.929688 189.089844 253.527344 190.074219 251.113281 191.605469 L 235.675781 164.875 C 237.46875 162.304688 238.628906 160.539062 238.792969 160.050781 Z M 164.832031 237.519531 L 162.175781 242.117188 C 162.167969 242.125 162.152344 242.128906 162.144531 242.140625 C 161.6875 242.644531 158.808594 244.480469 154.605469 247.039062 L 158.328125 240.589844 C 161.339844 239.242188 163.601562 238.179688 164.832031 237.519531 Z M 188.480469 198.40625 L 213.597656 241.910156 L 163.363281 241.910156 Z M 162.40625 242.835938 L 168.125 242.835938 C 167.179688 243.691406 165.160156 245.371094 162.277344 247.703125 L 154.855469 247.703125 C 158.742188 245.335938 161.496094 243.585938 162.40625 242.835938 Z M 168.792969 242.835938 L 174.859375 242.835938 C 174.25 243.699219 172.898438 245.398438 171.011719 247.703125 L 163.011719 247.703125 C 165.976562 245.296875 168.027344 243.578125 168.792969 242.835938 Z M 175.410156 242.835938 L 181.550781 242.835938 C 181.265625 243.671875 180.597656 245.378906 179.65625 247.703125 L 171.59375 247.703125 C 173.53125 245.332031 174.886719 243.617188 175.410156 242.835938 Z M 182.035156 242.835938 L 188.207031 242.835938 C 188.214844 243.601562 188.226562 245.316406 188.234375 247.703125 L 180.152344 247.703125 C 181.105469 245.359375 181.773438 243.640625 182.035156 242.835938 Z M 188.675781 242.835938 L 194.863281 242.835938 C 195.167969 243.621094 195.878906 245.339844 196.875 247.703125 L 188.710938 247.703125 C 188.699219 245.335938 188.6875 243.628906 188.675781 242.835938 Z M 195.363281 242.835938 L 201.484375 242.835938 C 202.042969 243.597656 203.445312 245.320312 205.433594 247.703125 L 197.378906 247.703125 C 196.40625 245.390625 195.695312 243.6875 195.363281 242.835938 Z M 202.058594 242.835938 L 208.109375 242.835938 C 208.910156 243.546875 211.035156 245.273438 214.074219 247.703125 L 206.03125 247.703125 C 204.117188 245.40625 202.722656 243.707031 202.058594 242.835938 Z M 208.8125 242.835938 L 214.5 242.835938 C 215.402344 243.476562 218.21875 245.214844 222.355469 247.703125 L 214.816406 247.703125 C 211.917969 245.390625 209.824219 243.695312 208.8125 242.835938 Z M 214.859375 242.246094 L 212.121094 237.496094 C 213.371094 238.117188 215.640625 239.148438 218.664062 240.476562 L 222.375 246.902344 C 218.21875 244.40625 215.566406 242.765625 214.859375 242.246094 Z M 211.699219 236.765625 L 208.722656 231.617188 C 209.808594 231.933594 211.777344 232.410156 214.339844 232.988281 L 218.273438 239.800781 C 214.835938 238.285156 212.546875 237.230469 211.699219 236.765625 Z M 208.390625 231.039062 L 205.339844 225.753906 C 205.421875 225.753906 205.511719 225.757812 205.609375 225.757812 C 206.554688 225.757812 208.097656 225.675781 210.035156 225.535156 L 214.023438 232.441406 C 211.09375 231.777344 209.125 231.292969 208.390625 231.039062 Z M 205.078125 225.300781 L 201.972656 219.921875 C 202.503906 219.71875 203.5625 219.226562 205.742188 218.097656 L 209.78125 225.09375 C 207.359375 225.269531 205.71875 225.34375 205.078125 225.300781 Z M 201.742188 219.527344 L 198.625 214.125 C 199.007812 213.738281 199.785156 212.835938 201.476562 210.707031 L 205.511719 217.695312 C 203.621094 218.679688 202.3125 219.320312 201.742188 219.527344 Z M 198.390625 213.71875 L 195.289062 208.351562 C 195.617188 207.613281 196.292969 205.851562 197.21875 203.335938 L 201.226562 210.273438 C 199.84375 212.015625 198.863281 213.210938 198.390625 213.71875 Z M 195.011719 207.863281 L 191.980469 202.617188 C 192.136719 201.714844 192.484375 199.332031 192.960938 195.964844 L 196.910156 202.804688 C 196.007812 205.28125 195.351562 207.027344 195.011719 207.863281 Z M 191.617188 201.988281 L 188.78125 197.074219 L 188.78125 188.722656 L 192.589844 195.3125 C 192.136719 198.519531 191.800781 200.828125 191.617188 201.988281 Z M 188.085938 197.238281 L 185.300781 202.066406 L 184.414062 195.410156 L 188.085938 189.042969 Z M 184.917969 202.722656 L 181.917969 207.921875 C 181.613281 207.117188 181 205.40625 180.105469 202.871094 L 184.03125 196.066406 Z M 181.625 208.433594 L 178.550781 213.757812 C 178.113281 213.269531 177.152344 212.0625 175.804688 210.316406 L 179.804688 203.390625 C 180.734375 206.019531 181.375 207.804688 181.625 208.433594 Z M 178.3125 214.171875 L 175.191406 219.574219 C 174.695312 219.4375 173.421875 218.832031 171.476562 217.816406 L 175.550781 210.757812 C 177.25 212.945312 177.976562 213.820312 178.3125 214.171875 Z M 174.957031 219.980469 L 171.871094 225.324219 C 171.328125 225.433594 169.71875 225.398438 167.199219 225.226562 L 171.246094 218.21875 C 173.429688 219.355469 174.449219 219.808594 174.957031 219.980469 Z M 170.679688 225.824219 C 171.042969 225.824219 171.347656 225.8125 171.601562 225.796875 L 168.578125 231.03125 C 167.960938 231.3125 166.023438 231.835938 162.972656 232.546875 L 166.945312 225.664062 C 168.46875 225.765625 169.75 225.824219 170.679688 225.824219 Z M 168.222656 231.640625 L 165.285156 236.730469 C 164.570312 237.207031 162.304688 238.300781 158.722656 239.910156 L 162.65625 233.09375 C 165.179688 232.507812 167.15625 232.003906 168.222656 231.640625 Z M 158 240.230469 C 154.820312 241.652344 150.707031 243.4375 145.796875 245.53125 L 151.59375 235.492188 C 155.40625 234.699219 159.0625 233.917969 162.039062 233.234375 Z M 157.609375 240.910156 L 153.78125 247.539062 C 149.878906 249.90625 144.976562 252.8125 139.851562 255.828125 L 145.414062 246.195312 C 150.082031 244.207031 154.261719 242.402344 157.609375 240.910156 Z M 154.09375 248.164062 L 161.707031 248.164062 C 158.914062 250.414062 155.386719 253.226562 151.296875 256.453125 L 140.160156 256.453125 C 145.378906 253.382812 150.234375 250.503906 154.09375 248.164062 Z M 162.441406 248.164062 L 170.632812 248.164062 C 168.746094 250.453125 166.378906 253.285156 163.703125 256.453125 L 152.039062 256.453125 C 156.058594 253.28125 159.621094 250.445312 162.441406 248.164062 Z M 171.214844 248.164062 L 179.464844 248.164062 C 178.53125 250.457031 177.351562 253.292969 176.023438 256.453125 L 164.296875 256.453125 C 166.960938 253.296875 169.335938 250.457031 171.214844 248.164062 Z M 179.964844 248.164062 L 188.238281 248.164062 L 188.273438 256.453125 L 176.527344 256.453125 C 177.851562 253.300781 179.03125 250.460938 179.964844 248.164062 Z M 188.714844 248.164062 L 197.070312 248.164062 C 198.035156 250.457031 199.246094 253.296875 200.597656 256.453125 L 188.75 256.453125 Z M 197.578125 248.164062 L 205.820312 248.164062 C 207.734375 250.453125 210.136719 253.296875 212.824219 256.453125 L 201.105469 256.453125 C 199.75 253.285156 198.542969 250.453125 197.578125 248.164062 Z M 206.417969 248.164062 L 214.65625 248.164062 C 217.519531 250.449219 221.121094 253.292969 225.140625 256.453125 L 213.433594 256.453125 C 210.734375 253.289062 208.339844 250.457031 206.417969 248.164062 Z M 215.398438 248.164062 L 223.125 248.164062 C 226.921875 250.441406 231.714844 253.285156 237.09375 256.453125 L 225.890625 256.453125 C 221.832031 253.265625 218.257812 250.441406 215.398438 248.164062 Z M 223.191406 247.394531 L 219.378906 240.792969 C 222.742188 242.269531 226.945312 244.078125 231.65625 246.085938 L 237.222656 255.722656 C 231.660156 252.449219 226.894531 249.617188 223.191406 247.394531 Z M 218.988281 240.117188 L 214.953125 233.125 C 217.894531 233.785156 221.535156 234.566406 225.480469 235.390625 L 231.269531 245.417969 C 226.402344 243.34375 222.238281 241.542969 218.988281 240.117188 Z M 214.640625 232.582031 L 210.546875 225.496094 C 213.023438 225.3125 216.074219 225.042969 219.328125 224.734375 L 225.171875 234.855469 C 221.011719 233.980469 217.433594 233.210938 214.640625 232.582031 Z M 210.292969 225.054688 L 206.152344 217.882812 C 207.265625 217.300781 212.195312 214.640625 213.1875 214.09375 L 219.074219 224.296875 C 215.613281 224.621094 212.625 224.878906 210.292969 225.054688 Z M 205.921875 217.484375 L 201.785156 210.316406 C 202.636719 209.238281 206.355469 204.4375 207.070312 203.503906 L 212.957031 213.695312 C 210.1875 215.214844 207.796875 216.5 205.921875 217.484375 Z M 201.535156 209.882812 L 197.425781 202.769531 C 198.390625 200.140625 199.605469 196.773438 200.96875 192.9375 L 206.820312 203.066406 C 204.746094 205.773438 202.949219 208.089844 201.535156 209.882812 Z M 197.117188 202.234375 L 193.066406 195.21875 C 193.566406 191.710938 194.183594 187.253906 194.859375 182.351562 L 200.65625 192.390625 C 199.269531 196.28125 198.070312 199.625 197.117188 202.234375 Z M 192.691406 194.570312 L 188.785156 187.796875 L 188.785156 171.832031 L 194.484375 181.699219 C 193.789062 186.738281 193.179688 191.121094 192.691406 194.570312 Z M 188.089844 188.117188 L 184.3125 194.65625 L 182.597656 181.789062 L 188.089844 172.277344 Z M 183.933594 195.316406 L 179.902344 202.292969 C 179.003906 199.742188 177.84375 196.429688 176.453125 192.433594 L 182.21875 182.445312 Z M 179.601562 202.816406 L 175.5 209.921875 C 174.09375 208.101562 172.316406 205.765625 170.296875 203.09375 L 176.152344 192.953125 C 177.496094 196.808594 178.675781 200.1875 179.601562 202.816406 Z M 171.96875 206.085938 C 173.320312 207.867188 174.394531 209.265625 175.246094 210.363281 L 171.066406 217.601562 C 169.25 216.644531 166.90625 215.363281 164.113281 213.804688 L 170.039062 203.542969 Z M 166.386719 215.597656 C 168.222656 216.605469 169.675781 217.390625 170.835938 218 L 166.683594 225.191406 C 164.414062 225.03125 161.480469 224.769531 157.984375 224.425781 L 163.882812 214.203125 C 164.734375 214.683594 165.574219 215.148438 166.386719 215.597656 Z M 166.429688 225.628906 L 162.355469 232.691406 C 159.625 233.320312 156.09375 234.085938 151.902344 234.957031 L 157.730469 224.863281 C 160.945312 225.183594 163.972656 225.457031 166.429688 225.628906 Z M 151.292969 235.085938 C 147.191406 235.933594 142.476562 236.886719 137.277344 237.90625 L 145.5625 223.554688 C 149.242188 223.972656 153.351562 224.425781 157.222656 224.8125 Z M 150.984375 235.617188 L 145.089844 245.832031 C 140.320312 247.863281 134.828125 250.167969 128.734375 252.699219 L 136.96875 238.433594 C 141.144531 237.617188 146.164062 236.613281 150.984375 235.617188 Z M 144.707031 246.496094 L 139.042969 256.304688 C 134.21875 259.144531 121.75 266.429688 120.328125 267.265625 L 128.355469 253.359375 C 134.0625 250.988281 139.652344 248.644531 144.707031 246.496094 Z M 125.09375 265.28125 L 139.375 256.917969 L 150.707031 256.917969 C 146.546875 260.199219 141.824219 263.898438 136.710938 267.875 L 120.65625 267.875 Z M 151.453125 256.917969 L 163.3125 256.917969 C 160.457031 260.292969 157.273438 264.027344 153.972656 267.875 L 137.464844 267.875 C 142.390625 264.039062 147.167969 260.296875 151.453125 256.917969 Z M 163.90625 256.917969 L 175.828125 256.917969 C 174.402344 260.308594 172.8125 264.050781 171.179688 267.875 L 154.574219 267.875 C 157.835938 264.070312 161.03125 260.320312 163.90625 256.917969 Z M 176.332031 256.917969 L 188.273438 256.917969 L 188.308594 267.875 L 171.679688 267.875 C 173.308594 264.074219 174.898438 260.324219 176.332031 256.917969 Z M 188.753906 256.917969 L 200.792969 256.917969 L 205.5 267.875 L 188.785156 267.875 Z M 201.304688 256.917969 L 213.21875 256.917969 C 216.121094 260.320312 219.332031 264.070312 222.605469 267.875 L 206.015625 267.875 Z M 213.828125 256.917969 L 225.730469 256.917969 C 230.0625 260.320312 234.859375 264.070312 239.742188 267.875 L 223.21875 267.875 C 219.90625 264.027344 216.703125 260.292969 213.828125 256.917969 Z M 226.480469 256.917969 L 237.878906 256.917969 C 243.644531 260.3125 250.046875 264.0625 256.589844 267.875 L 240.496094 267.875 C 235.488281 263.976562 230.730469 260.253906 226.480469 256.917969 Z M 238.03125 256.203125 L 232.363281 246.386719 C 237.421875 248.539062 243.035156 250.90625 248.804688 253.320312 L 256.824219 267.210938 C 249.976562 263.21875 243.621094 259.496094 238.03125 256.203125 Z M 231.980469 245.71875 L 226.089844 235.519531 C 230.617188 236.460938 235.511719 237.460938 240.1875 238.398438 L 248.421875 252.660156 C 242.410156 250.140625 236.855469 247.796875 231.980469 245.71875 Z M 225.78125 234.980469 L 219.835938 224.6875 C 223.699219 224.320312 227.816406 223.898438 231.585938 223.5 L 239.882812 237.867188 C 234.75 236.835938 229.980469 235.859375 225.78125 234.980469 Z M 219.582031 224.25 L 213.589844 213.871094 C 216.449219 212.300781 219.660156 210.511719 223 208.628906 L 231.335938 223.0625 C 227.0625 223.515625 223.089844 223.914062 219.582031 224.25 Z M 213.363281 213.472656 L 207.375 203.105469 C 209.511719 200.316406 211.921875 197.136719 214.4375 193.792969 L 222.769531 208.226562 C 219.355469 210.15625 216.171875 211.925781 213.363281 213.472656 Z M 207.125 202.667969 L 201.175781 192.363281 C 202.617188 188.304688 204.226562 183.742188 205.890625 178.992188 L 214.1875 193.359375 C 211.625 196.761719 209.238281 199.910156 207.125 202.667969 Z M 200.859375 191.816406 L 194.960938 181.605469 L 197.34375 164.1875 L 205.578125 178.449219 C 203.867188 183.324219 202.273438 187.84375 200.859375 191.816406 Z M 194.585938 180.953125 L 188.789062 170.90625 L 188.789062 149.371094 L 196.964844 163.53125 Z M 188.09375 171.351562 L 182.5 181.039062 L 180.175781 163.601562 L 188.09375 149.886719 Z M 182.117188 181.695312 L 176.25 191.859375 L 171.597656 178.457031 L 179.796875 164.257812 Z M 175.953125 192.375 L 169.996094 202.691406 C 167.859375 199.863281 165.472656 196.683594 162.992188 193.363281 L 171.300781 178.972656 Z M 169.734375 203.140625 L 163.710938 213.578125 C 160.988281 212.050781 157.855469 210.273438 154.382812 208.273438 L 162.734375 193.8125 C 165.273438 197.214844 167.648438 200.378906 169.734375 203.140625 Z M 163.480469 213.980469 L 157.476562 224.375 C 154.074219 224.03125 150.160156 223.613281 145.816406 223.117188 L 154.152344 208.675781 C 157.167969 210.410156 160.414062 212.261719 163.480469 213.980469 Z M 145.3125 223.058594 C 143.113281 222.808594 134.460938 221.777344 132.53125 221.539062 L 143.523438 202.496094 C 145.070312 203.402344 151.734375 207.28125 153.75 208.445312 Z M 138.179688 222.691406 C 140.070312 222.917969 142.445312 223.199219 145.0625 223.496094 L 136.671875 238.023438 C 134.089844 238.53125 123.667969 240.53125 121.308594 240.976562 L 132.277344 221.972656 C 134.332031 222.226562 136.320312 222.46875 138.179688 222.691406 Z M 128.425781 240.09375 C 129.929688 239.808594 132.808594 239.253906 136.367188 238.554688 L 128.03125 252.992188 C 124.988281 254.257812 112.832031 259.261719 110.109375 260.371094 L 121.003906 241.503906 C 123.699219 240.996094 126.226562 240.515625 128.425781 240.09375 Z M 118.402344 257.472656 L 127.652344 253.652344 L 119.519531 267.734375 C 119.480469 267.757812 99 279.617188 99 279.617188 L 109.730469 261.023438 Z M 119.746094 268.40625 L 119.863281 268.339844 L 136.117188 268.339844 C 133.757812 270.171875 123.339844 278.238281 120.765625 280.21875 L 99.34375 280.21875 Z M 128.9375 274.496094 L 136.871094 268.339844 L 153.574219 268.339844 C 150.195312 272.277344 146.699219 276.324219 143.316406 280.21875 L 121.519531 280.21875 Z M 148.808594 274.578125 L 154.179688 268.339844 L 170.980469 268.339844 C 170.195312 270.167969 166.742188 278.183594 165.859375 280.21875 L 143.925781 280.21875 Z M 168.839844 274.496094 L 171.484375 268.339844 L 188.308594 268.339844 L 188.335938 280.21875 L 166.363281 280.21875 Z M 188.796875 273.835938 L 188.785156 268.339844 L 205.699219 268.339844 L 210.835938 280.21875 L 188.804688 280.21875 Z M 206.214844 268.339844 L 223 268.339844 C 224.789062 270.414062 231.667969 278.378906 233.261719 280.21875 L 211.347656 280.21875 Z M 223.617188 268.339844 L 240.335938 268.339844 C 242.882812 270.320312 252.75 277.972656 255.65625 280.21875 L 233.882812 280.21875 C 230.503906 276.324219 227.007812 272.277344 223.617188 268.339844 Z M 248.070312 273.761719 L 241.089844 268.339844 L 257.382812 268.339844 C 260.9375 270.410156 273.867188 277.917969 277.855469 280.21875 L 256.414062 280.21875 Z M 268.167969 273.808594 L 257.628906 267.679688 L 249.507812 253.613281 C 252.410156 254.828125 263.355469 259.375 267.492188 261.082031 L 278.191406 279.613281 Z M 258.226562 256.746094 L 249.128906 252.953125 L 240.792969 238.519531 C 243.402344 239.042969 252.972656 240.925781 256.214844 241.550781 L 267.113281 260.425781 Z M 248.160156 239.511719 L 240.484375 237.988281 L 232.089844 223.445312 C 234.40625 223.199219 242.292969 222.328125 244.941406 222.019531 L 255.910156 241.019531 C 253.425781 240.542969 250.839844 240.039062 248.160156 239.511719 Z M 238.398438 222.296875 C 236.15625 222.546875 233.960938 222.785156 231.839844 223.011719 L 223.40625 208.398438 C 225.101562 207.441406 231.390625 203.855469 233.6875 202.53125 L 244.6875 221.585938 C 242.667969 221.816406 240.566406 222.054688 238.398438 222.296875 Z M 234.085938 202.296875 C 236.882812 200.679688 240.269531 198.707031 243.519531 196.773438 L 256.980469 220.089844 C 253.507812 220.535156 249.539062 221.019531 245.1875 221.527344 Z M 233.855469 201.898438 L 222.753906 182.664062 C 225.1875 179.378906 227.617188 176.078125 229.820312 173.046875 L 243.289062 196.378906 C 240.527344 198.019531 237.355469 199.878906 233.855469 201.898438 Z M 233.457031 202.132812 C 231.90625 203.023438 224.9375 207.003906 223.171875 208 L 214.738281 193.394531 C 216.039062 191.664062 221.1875 184.773438 222.453125 183.070312 Z M 218.570312 187.511719 C 217.175781 189.378906 215.808594 191.203125 214.488281 192.957031 L 206.09375 178.414062 C 207.789062 173.566406 209.539062 168.535156 211.230469 163.636719 L 222.199219 182.632812 Z M 208.40625 170.363281 L 205.78125 177.875 L 197.445312 163.4375 L 200.03125 144.234375 L 210.925781 163.109375 Z M 198.320312 153.492188 L 197.066406 162.78125 L 188.792969 148.449219 L 188.792969 124.773438 L 199.652344 143.578125 Z M 188.097656 148.960938 L 180.074219 162.847656 L 177.515625 143.621094 L 188.097656 125.289062 Z M 179.695312 163.507812 L 171.398438 177.878906 L 166.28125 163.078125 L 177.136719 144.277344 Z M 171.101562 178.390625 L 162.691406 192.960938 C 160.160156 189.570312 157.542969 186.046875 155 182.617188 L 165.988281 163.589844 Z M 158.367188 187.949219 L 162.433594 193.410156 L 153.984375 208.042969 C 152.148438 206.984375 145.21875 202.953125 143.753906 202.09375 L 154.742188 183.0625 Z M 143.355469 201.859375 C 140.007812 199.894531 136.800781 197.992188 133.929688 196.277344 L 147.355469 173.023438 C 149.554688 176.027344 151.980469 179.324219 154.445312 182.65625 Z M 143.125 202.261719 L 132.03125 221.476562 C 127.847656 220.960938 123.839844 220.445312 120.25 219.96875 L 133.695312 196.679688 C 136.621094 198.429688 139.851562 200.339844 143.125 202.261719 Z M 131.78125 221.910156 L 120.707031 241.089844 C 115.574219 242.054688 110.789062 242.933594 106.554688 243.691406 L 120 220.398438 C 123.789062 220.902344 127.878906 221.425781 131.78125 221.910156 Z M 120.402344 241.613281 L 109.410156 260.65625 C 103.453125 263.089844 97.867188 265.347656 92.90625 267.332031 L 106.253906 244.210938 C 110.902344 243.378906 115.867188 242.464844 120.402344 241.613281 Z M 109.035156 261.308594 L 98.195312 280.082031 L 79.296875 290.902344 L 92.53125 267.980469 C 97.824219 265.863281 103.558594 263.542969 109.035156 261.308594 Z M 98.421875 280.75 L 98.542969 280.683594 L 120.164062 280.683594 C 114.917969 284.714844 110.160156 288.351562 106.007812 291.496094 L 79.65625 291.496094 Z M 120.917969 280.683594 L 142.914062 280.683594 C 139.570312 284.53125 136.34375 288.21875 133.453125 291.496094 L 106.765625 291.496094 C 111.675781 287.773438 116.757812 283.882812 120.917969 280.683594 Z M 143.523438 280.683594 L 165.660156 280.683594 C 163.917969 284.691406 162.324219 288.332031 160.925781 291.496094 L 134.066406 291.496094 C 136.914062 288.269531 140.117188 284.605469 143.523438 280.683594 Z M 166.164062 280.683594 L 188.335938 280.683594 L 188.339844 291.496094 L 161.429688 291.496094 C 162.851562 288.277344 164.457031 284.613281 166.164062 280.683594 Z M 188.804688 280.683594 L 211.035156 280.683594 L 215.742188 291.496094 L 188.804688 291.496094 Z M 211.550781 280.683594 L 233.664062 280.683594 C 237.070312 284.609375 240.265625 288.273438 243.089844 291.496094 L 216.253906 291.496094 Z M 234.285156 280.683594 L 256.257812 280.683594 C 260.667969 284.085938 265.640625 287.910156 270.34375 291.496094 L 243.710938 291.496094 C 240.839844 288.21875 237.625 284.53125 234.285156 280.683594 Z M 257.015625 280.683594 L 278.65625 280.683594 C 284.328125 283.957031 291.042969 287.824219 297.476562 291.496094 L 271.109375 291.496094 C 267 288.363281 262.265625 284.730469 257.015625 280.683594 Z M 278.992188 280.074219 L 268.191406 261.367188 C 273.109375 263.394531 279.035156 265.820312 284.703125 268.109375 L 297.878906 290.925781 C 292.328125 287.757812 285.976562 284.109375 278.992188 280.074219 Z M 267.816406 260.714844 L 256.816406 241.664062 C 261.132812 242.496094 266.179688 243.453125 270.972656 244.324219 L 284.332031 267.464844 C 279.484375 265.503906 273.929688 263.238281 267.816406 260.714844 Z M 256.511719 241.136719 L 245.441406 221.960938 C 249.027344 221.546875 253.230469 221.042969 257.234375 220.527344 L 270.667969 243.800781 C 266.515625 243.042969 261.753906 242.148438 256.511719 241.136719 Z M 257.730469 220.460938 C 260.96875 220.042969 264.046875 219.617188 266.523438 219.230469 L 281.832031 245.746094 C 279.050781 245.292969 275.484375 244.675781 271.265625 243.90625 Z M 257.476562 220.023438 L 243.917969 196.539062 C 246.492188 195.003906 248.957031 193.507812 250.949219 192.25 L 266.277344 218.800781 C 263.957031 219.15625 260.980469 219.570312 257.476562 220.023438 Z M 243.6875 196.140625 L 230.121094 172.640625 C 232.128906 169.871094 233.941406 167.351562 235.382812 165.292969 L 250.71875 191.855469 C 248.878906 193.015625 246.507812 194.460938 243.6875 196.140625 Z M 229.867188 172.203125 L 216.335938 148.761719 C 217.6875 144.78125 218.882812 141.222656 219.832031 138.355469 L 235.128906 164.851562 C 233.757812 166.8125 231.980469 169.296875 229.867188 172.203125 Z M 229.570312 172.613281 C 227.5 175.453125 225.125 178.6875 222.5 182.230469 L 211.433594 163.058594 C 213.097656 158.242188 214.699219 153.566406 216.136719 149.34375 Z M 211.128906 162.53125 L 200.132812 143.484375 L 202.488281 125.703125 L 215.839844 148.832031 C 214.375 153.125 212.753906 157.832031 211.128906 162.53125 Z M 199.753906 142.828125 L 188.796875 123.851562 C 188.796875 123.851562 188.796875 101.996094 188.796875 101.996094 L 202.105469 125.042969 Z M 188.101562 124.363281 L 177.414062 142.871094 L 175.042969 125.0625 L 188.101562 102.441406 Z M 177.035156 143.527344 L 166.082031 162.5 L 161.351562 148.777344 L 174.664062 125.722656 Z M 165.789062 163.007812 L 154.703125 182.210938 C 152.199219 178.828125 149.777344 175.546875 147.609375 172.582031 L 161.058594 149.285156 Z M 147.308594 172.175781 C 145.25 169.359375 143.421875 166.847656 141.976562 164.835938 L 157.289062 138.316406 L 160.859375 148.707031 Z M 147.054688 172.617188 L 133.53125 196.039062 C 130.78125 194.394531 128.359375 192.929688 126.4375 191.75 L 141.722656 165.273438 C 143.191406 167.316406 145.019531 169.832031 147.054688 172.617188 Z M 133.296875 196.441406 L 119.753906 219.902344 C 116.324219 219.445312 113.296875 219.023438 110.894531 218.667969 L 126.207031 192.152344 C 128.15625 193.351562 130.589844 194.820312 133.296875 196.441406 Z M 119.503906 220.332031 L 105.960938 243.796875 C 101.792969 244.539062 98.183594 245.160156 95.332031 245.628906 L 110.648438 219.097656 C 113.117188 219.464844 116.183594 219.890625 119.503906 220.332031 Z M 105.65625 244.320312 L 92.210938 267.609375 C 87.375 269.542969 83.160156 271.203125 79.820312 272.496094 L 95.035156 246.140625 C 98.007812 245.664062 101.703125 245.023438 105.65625 244.320312 Z M 91.835938 268.257812 L 78.5 291.359375 L 64.3125 299.355469 L 79.449219 273.132812 C 82.882812 271.8125 87.171875 270.121094 91.835938 268.257812 Z M 78.726562 292.027344 L 78.847656 291.957031 L 105.394531 291.957031 C 101.117188 295.195312 97.507812 297.890625 94.714844 299.9375 L 64.691406 299.9375 Z M 106.15625 291.957031 L 133.046875 291.957031 C 130.273438 295.097656 127.832031 297.832031 125.914062 299.9375 L 95.488281 299.9375 C 98.542969 297.699219 102.28125 294.894531 106.15625 291.957031 Z M 130.632812 295.375 C 131.582031 294.308594 132.59375 293.164062 133.660156 291.957031 L 160.71875 291.957031 C 159.292969 295.175781 158.078125 297.878906 157.132812 299.9375 L 126.53125 299.9375 C 127.625 298.734375 128.972656 297.238281 130.632812 295.375 Z M 159.734375 295.304688 C 160.203125 294.261719 160.699219 293.140625 161.222656 291.957031 L 188.339844 291.957031 C 188.335938 295.082031 188.328125 297.816406 188.316406 299.9375 L 157.640625 299.9375 C 158.199219 298.722656 158.886719 297.203125 159.734375 295.304688 Z M 188.796875 294.992188 L 188.804688 291.957031 L 215.945312 291.957031 C 216.460938 293.140625 218.914062 298.722656 219.453125 299.9375 L 188.777344 299.9375 C 188.785156 298.660156 188.792969 297.042969 188.796875 294.992188 Z M 216.457031 291.957031 L 243.496094 291.957031 C 244.550781 293.160156 249.46875 298.734375 250.550781 299.9375 L 219.964844 299.9375 C 219.027344 297.828125 217.824219 295.089844 216.457031 291.957031 Z M 244.117188 291.957031 L 270.953125 291.957031 C 274.859375 294.933594 278.550781 297.71875 281.546875 299.9375 L 251.175781 299.9375 C 249.289062 297.832031 246.871094 295.09375 244.117188 291.957031 Z M 271.71875 291.957031 L 298.285156 291.957031 C 303.445312 294.898438 308.382812 297.695312 312.417969 299.9375 L 282.320312 299.9375 C 279.566406 297.898438 275.992188 295.207031 271.71875 291.957031 Z M 298.675781 291.378906 L 285.402344 268.386719 C 289.929688 270.214844 294.253906 271.933594 297.726562 273.269531 L 312.78125 299.347656 C 309.039062 297.261719 304.28125 294.574219 298.675781 291.378906 Z M 285.027344 267.746094 L 271.570312 244.433594 C 275.464844 245.140625 279.160156 245.785156 282.128906 246.253906 L 297.363281 272.644531 C 294.105469 271.378906 289.941406 269.726562 285.027344 267.746094 Z M 282.714844 246.347656 C 285.433594 246.769531 287.464844 247.03125 288.355469 247.03125 C 288.589844 247.03125 288.746094 247.011719 288.8125 246.976562 C 288.859375 246.949219 288.890625 246.90625 288.914062 246.863281 L 305.4375 275.484375 C 305.414062 275.480469 305.394531 275.480469 305.375 275.484375 C 305.367188 275.484375 305.363281 275.484375 305.359375 275.484375 C 304.933594 275.484375 302.363281 274.570312 298.050781 272.910156 Z M 288.597656 246.566406 C 288.265625 246.6875 286.089844 246.425781 282.421875 245.839844 L 267.015625 219.152344 C 269.925781 218.683594 271.90625 218.273438 272.164062 217.992188 C 272.183594 217.972656 272.195312 217.949219 272.203125 217.925781 L 288.726562 246.542969 C 288.683594 246.539062 288.640625 246.542969 288.597656 246.566406 Z M 271.828125 217.675781 C 271.578125 217.886719 269.785156 218.25 266.769531 218.722656 L 251.339844 192.003906 C 253.6875 190.507812 255.296875 189.386719 255.492188 189.003906 C 255.496094 188.996094 255.496094 188.992188 255.496094 188.984375 L 272.019531 217.605469 C 271.953125 217.597656 271.878906 217.617188 271.828125 217.675781 Z M 238.355469 159.894531 C 238.25 160.269531 237.214844 161.863281 235.421875 164.433594 L 220.027344 137.765625 C 221.21875 134.148438 221.972656 131.738281 222.089844 131.121094 L 238.609375 159.734375 C 238.496094 159.71875 238.386719 159.785156 238.355469 159.894531 Z M 221.640625 130.992188 C 221.574219 131.503906 220.859375 133.808594 219.730469 137.253906 L 204.414062 110.726562 C 204.984375 106.171875 205.34375 103.074219 205.390625 102.199219 L 221.898438 130.792969 C 221.773438 130.777344 221.660156 130.867188 221.640625 130.992188 Z M 219.535156 137.84375 C 218.589844 140.710938 217.382812 144.292969 216.039062 148.25 L 202.585938 124.949219 C 203.257812 119.828125 203.851562 115.214844 204.320312 111.484375 Z M 202.207031 124.289062 L 188.800781 101.070312 L 188.800781 84.609375 L 203.9375 110.824219 C 203.476562 114.507812 202.878906 119.128906 202.207031 124.289062 Z M 188.105469 101.515625 L 174.945312 124.3125 L 173.148438 110.84375 L 188.105469 84.933594 Z M 174.5625 124.96875 L 161.152344 148.199219 L 157.585938 137.800781 L 172.769531 111.5 Z M 157.386719 137.222656 C 156.625 134.996094 156.039062 133.273438 155.675781 132.199219 L 171.820312 104.363281 L 172.671875 110.746094 Z M 188.773438 300.402344 L 219.65625 300.402344 C 220.660156 302.65625 221.167969 303.761719 221.4375 304.308594 L 188.707031 304.308594 C 188.738281 303.785156 188.761719 302.699219 188.773438 300.402344 Z M 313.566406 299.785156 L 298.414062 273.535156 C 302.238281 275 304.898438 275.941406 305.40625 275.941406 C 305.425781 275.941406 305.441406 275.941406 305.453125 275.9375 C 305.53125 275.921875 305.589844 275.867188 305.621094 275.800781 L 322.0625 304.277344 C 321.390625 304.054688 318.417969 302.476562 313.566406 299.785156 Z M 205.195312 101.855469 C 205.183594 101.855469 205.179688 101.851562 205.171875 101.851562 C 205.042969 101.84375 204.9375 101.949219 204.933594 102.078125 C 204.917969 102.734375 204.582031 105.652344 204.03125 110.0625 L 188.804688 83.683594 L 188.804688 75.074219 L 189.269531 74.273438 Z M 188.109375 84.007812 L 173.050781 110.089844 L 172.199219 103.707031 L 188.109375 76.273438 Z M 188.109375 84.007812 " fill-opacity="1" fill-rule="nonzero"/></g></svg>